<?xml version="1.0" standalone="no"?>
<!DOCTYPE svg PUBLIC "-//W3C//DTD SVG 20010904//EN"
 "http://www.w3.org/TR/2001/REC-SVG-20010904/DTD/svg10.dtd">
<svg version="1.0" xmlns="http://www.w3.org/2000/svg"
 width="447.000000pt" height="558.000000pt" viewBox="0 0 447.000000 558.000000"
 preserveAspectRatio="xMidYMid meet">

<g transform="translate(0.000000,558.000000) scale(0.100000,-0.100000)"
fill="#000000" stroke="none">
<path d="M1723 5539 c3 -9 8 -42 12 -74 7 -56 6 -59 -22 -84 -46 -41 -63 -72
-63 -114 0 -33 -2 -38 -14 -27 -12 9 -16 5 -21 -27 -11 -61 -13 -62 -14 0 -1
49 -4 57 -20 57 -10 0 -31 16 -45 35 -34 44 -71 49 -63 8 3 -16 9 -36 12 -45
5 -13 2 -15 -15 -11 -24 6 -49 -20 -50 -54 0 -15 7 -23 23 -26 20 -4 20 -4 1
-6 -15 -1 -21 -8 -22 -28 -2 -61 -19 -93 -29 -55 -6 26 -21 30 -19 6 1 -22
-41 -26 -50 -5 -4 9 -6 20 -5 24 1 4 -5 15 -14 23 -8 9 -15 22 -15 30 0 8 -4
14 -9 14 -13 0 1 -41 38 -115 31 -60 40 -115 21 -115 -28 0 -73 35 -86 67 -9
19 -18 33 -21 29 -11 -10 19 -66 49 -91 33 -28 27 -32 -14 -11 -16 8 -28 11
-28 6 0 -14 82 -80 99 -80 14 0 14 -1 1 -10 -21 -13 -64 -12 -78 2 -7 7 -12 8
-12 2 0 -17 60 -46 85 -42 31 6 35 -19 29 -192 -5 -196 -13 -274 -36 -370 -11
-47 -22 -98 -24 -115 -4 -28 -16 -58 -84 -200 -13 -27 -24 -52 -25 -55 -2 -17
-19 -30 -39 -30 -27 0 -46 -18 -46 -42 0 -10 -4 -18 -10 -18 -12 0 -12 46 -1
75 5 11 6 26 4 33 -10 24 -19 11 -20 -29 -1 -22 -6 -46 -11 -52 -13 -19 -15
-77 -2 -77 9 0 9 -4 -1 -17 -7 -10 30 27 82 81 52 54 102 111 113 125 12 18
16 20 10 6 -4 -11 -7 -31 -7 -44 1 -15 -2 -19 -7 -12 -11 19 -18 -18 -9 -49 4
-14 8 -20 8 -15 1 6 5 4 10 -3 9 -14 31 79 31 130 0 37 20 118 29 118 10 0 29
-39 35 -70 3 -14 12 -48 19 -76 8 -28 13 -63 12 -78 -4 -31 22 -89 36 -81 5 4
9 19 9 34 0 26 4 29 38 33 20 3 38 4 39 4 9 -7 8 -116 -1 -120 -22 -9 49 -6
113 6 36 6 75 20 87 30 27 24 46 23 64 -4 26 -37 50 -59 60 -53 13 8 13 41 0
66 -7 13 -7 19 -1 19 6 0 18 -14 26 -30 11 -20 34 -39 70 -57 55 -25 69 -46
39 -57 -26 -10 -5 -26 36 -26 21 0 41 -4 45 -10 4 -6 16 -5 33 1 86 34 221 48
293 29 22 -5 56 -14 77 -20 38 -10 101 -61 103 -83 0 -7 4 -4 7 6 12 28 40 -1
48 -48 5 -34 4 -37 -9 -26 -13 10 -18 7 -31 -21 -24 -49 -92 -118 -113 -113
-10 1 -22 4 -28 5 -31 7 -46 -1 -40 -20 5 -15 0 -21 -19 -26 -14 -3 -34 -3
-43 2 -10 4 -22 6 -27 5 -14 -3 -66 20 -66 30 0 5 -8 9 -17 10 -10 0 -13 3 -6
5 7 3 1 16 -15 34 -15 15 -38 40 -51 54 -26 29 -38 28 -22 -1 5 -11 12 -44 16
-74 4 -38 2 -48 -4 -34 -5 11 -10 15 -10 8 -1 -7 -17 -15 -36 -19 -39 -7 -75
15 -75 45 0 9 -12 27 -25 40 -15 14 -25 18 -25 10 0 -22 -22 7 -25 33 -1 13
-3 28 -4 35 -1 13 -62 53 -80 53 -7 0 -9 -6 -6 -12 4 -7 -2 -4 -12 8 -10 11
-27 20 -37 18 -10 -1 -30 4 -43 13 -34 23 -43 5 -10 -21 27 -22 36 -46 17 -46
-5 0 -10 3 -10 8 0 8 -52 34 -57 28 -5 -5 20 -60 31 -68 6 -4 -8 -4 -30 -1
-30 4 -49 0 -77 -17 -21 -13 -57 -32 -80 -44 -28 -14 -48 -33 -60 -58 -21 -47
-29 -49 -16 -6 13 46 11 52 -8 37 -15 -12 -16 -12 -10 4 13 34 -12 16 -37 -27
-40 -68 -50 -69 -43 -5 l6 54 -19 -55 c-10 -30 -18 -48 -19 -40 -1 14 16 73
34 125 4 11 -8 -6 -28 -38 -20 -31 -43 -82 -52 -112 -8 -30 -20 -55 -25 -55
-5 0 -8 -27 -7 -59 1 -32 5 -57 8 -55 3 2 6 -10 6 -26 0 -16 12 -48 27 -70 15
-23 25 -44 22 -48 -3 -3 -7 1 -7 9 -1 8 -4 -2 -8 -21 l-6 -35 -36 65 c-20 36
-39 80 -43 99 -3 18 -19 48 -34 66 -40 45 -91 173 -114 285 -18 88 -38 139
-38 96 0 -10 -11 -50 -24 -89 -42 -123 -76 -290 -85 -427 -5 -73 -13 -135 -17
-138 -3 -4 -4 54 -2 128 4 125 3 132 -9 90 -8 -25 -16 -80 -20 -122 -4 -55
-10 -79 -21 -83 -12 -4 -14 2 -9 32 3 21 9 49 13 63 7 24 6 24 -17 -5 -13 -16
-24 -34 -24 -40 0 -5 -11 -33 -25 -62 -19 -38 -34 -55 -60 -66 l-35 -15 32 -1
31 -1 -11 -37 c-16 -57 -15 -308 2 -367 15 -52 78 -126 106 -126 23 0 18 19
-7 31 -33 15 -65 68 -84 141 -31 120 4 355 61 406 30 25 50 29 41 7 -3 -8 0
-15 6 -15 7 0 9 -13 5 -35 -3 -20 -2 -33 2 -30 10 5 23 -36 15 -45 -3 -3 -11
3 -18 12 -11 15 -14 11 -25 -32 -15 -58 1 -135 49 -238 16 -34 32 -77 35 -96
5 -24 23 -48 66 -85 33 -29 65 -54 72 -55 7 -2 29 -11 50 -20 42 -18 77 -14
103 15 17 19 16 19 -15 3 -28 -14 -37 -14 -68 -2 -49 18 -54 38 -10 38 33 0
67 24 67 48 0 15 -17 16 -25 2 -3 -5 -24 -10 -45 -10 -55 0 -91 39 -109 119
-7 34 -11 64 -9 66 3 3 21 -2 41 -10 41 -17 123 -20 132 -5 4 6 -11 10 -37 10
-47 0 -125 31 -134 53 -2 7 3 40 12 73 9 32 16 68 16 79 0 30 35 134 63 185
46 85 21 -3 -36 -128 -11 -24 -18 -46 -15 -49 3 -3 20 26 38 65 18 39 36 71
41 72 4 0 7 -22 7 -48 0 -55 30 -182 54 -227 9 -16 16 -40 16 -51 0 -12 7 -27
15 -34 8 -7 15 -18 15 -24 0 -15 58 -71 82 -79 9 -3 28 -24 42 -46 29 -45 36
-51 82 -61 24 -6 34 -4 38 6 4 10 -2 14 -18 14 -15 0 -35 12 -50 31 -29 34
-26 53 6 43 23 -7 98 14 98 28 0 4 -17 8 -38 8 -50 0 -86 25 -77 54 4 11 6 46
5 76 0 31 3 76 9 100 8 34 7 48 -3 60 -20 22 -56 97 -56 115 0 10 13 5 46 -20
25 -19 51 -35 58 -35 7 0 30 -11 50 -25 21 -14 41 -23 46 -20 13 8 41 -6 34
-17 -3 -5 -11 -4 -20 3 -10 8 -14 8 -14 0 0 -14 45 -25 67 -17 14 6 14 8 -3
22 -18 14 -17 15 11 9 16 -4 33 -12 37 -18 6 -9 8 -9 8 0 0 7 -8 16 -17 22
-16 8 -14 11 12 20 80 30 304 179 369 247 23 24 50 44 59 44 22 0 22 0 -18
-67 -67 -109 -125 -188 -182 -245 -47 -49 -53 -58 -38 -64 28 -11 122 44 194
113 36 35 66 61 68 59 8 -7 10 -92 3 -101 -16 -20 -19 -102 -5 -121 8 -11 15
-28 15 -39 0 -16 2 -17 9 -6 5 8 7 106 5 220 l-4 205 20 -22 c22 -24 50 -29
50 -10 0 6 -5 26 -12 45 -6 18 -9 35 -6 39 11 10 49 -22 79 -68 l29 -43 0 34
0 34 70 -72 c63 -65 88 -111 60 -111 -5 0 -10 -6 -10 -13 0 -7 -6 -22 -14 -32
-12 -17 -16 -17 -30 -6 -24 20 -28 9 -16 -41 10 -38 9 -51 -7 -86 -10 -23 -23
-42 -30 -42 -15 0 -15 1 -18 -73 -2 -31 1 -60 6 -63 5 -3 9 -15 9 -28 0 -24
43 -73 123 -141 41 -34 47 -44 47 -77 0 -26 -4 -38 -14 -38 -10 0 -15 -11 -14
-39 0 -44 -29 -91 -71 -112 -14 -8 -33 -20 -41 -28 -8 -8 -29 -20 -46 -27 -18
-8 -35 -18 -38 -23 -3 -5 -29 -12 -56 -16 -30 -4 -47 -11 -44 -17 4 -6 -3 -5
-15 1 -17 10 -21 9 -21 -4 0 -8 5 -15 12 -15 6 0 3 -6 -8 -14 -10 -8 -21 -12
-24 -10 -2 3 2 9 10 14 8 6 10 10 4 10 -6 0 -17 -7 -24 -15 -7 -8 -9 -15 -4
-15 5 0 -9 -11 -31 -24 -22 -13 -44 -22 -49 -19 -5 4 -6 1 -2 -5 3 -6 -2 -16
-13 -21 -13 -7 -17 -17 -14 -31 4 -15 0 -20 -16 -20 -12 0 -19 5 -16 10 7 11
-6 13 -29 4 -9 -3 -16 -12 -16 -19 0 -19 -41 -30 -51 -14 -6 10 -10 9 -15 -5
-5 -13 -1 -23 11 -32 15 -12 13 -13 -21 -8 -36 5 -38 4 -20 -10 10 -8 24 -17
30 -19 6 -2 8 -8 4 -12 -10 -10 -84 21 -81 34 2 6 -9 11 -23 11 -34 0 -21 20
14 21 21 0 17 3 -18 13 -62 18 -175 72 -234 113 -26 18 -52 33 -56 33 -4 0
-15 17 -26 37 -10 21 -20 40 -21 42 -4 7 -43 -43 -63 -81 -25 -46 -27 -93 -4
-84 9 3 30 6 48 6 l33 0 -10 38 c-6 22 -7 47 -4 56 6 14 12 11 39 -21 48 -55
47 -54 118 -102 86 -58 152 -112 145 -119 -18 -18 -90 2 -115 33 -7 9 -23 21
-34 26 -22 11 35 -46 162 -163 45 -41 67 -68 60 -72 -7 -3 -3 -3 10 0 15 4 24
0 28 -10 3 -9 12 -16 20 -16 8 0 14 -5 14 -11 0 -6 -7 -8 -16 -5 -12 5 -15 2
-10 -9 3 -9 2 -14 -3 -11 -12 8 -49 -13 -85 -47 -16 -15 -40 -30 -53 -33 -17
-5 -23 -13 -23 -35 0 -16 -4 -29 -9 -29 -13 0 -34 -58 -27 -76 5 -14 15 -15
57 -10 54 7 192 55 197 68 2 4 10 8 17 8 7 0 26 7 41 15 16 8 34 15 41 15 18
0 3 -39 -18 -45 -10 -4 -19 -11 -19 -16 0 -5 -9 -9 -20 -9 -12 0 -24 -9 -29
-23 -11 -28 -100 -122 -124 -130 -9 -4 -16 -12 -15 -18 2 -6 -8 -13 -21 -14
-13 -1 -29 -9 -36 -18 -7 -10 -18 -17 -24 -17 -7 0 -10 -4 -7 -8 5 -9 -11 -12
-56 -12 -16 0 -28 -5 -28 -12 0 -16 -56 -42 -75 -34 -9 3 -12 0 -9 -8 3 -7 -3
-19 -12 -27 -15 -12 -19 -11 -32 9 -15 22 -72 32 -72 12 0 -5 7 -10 16 -10 8
0 12 -5 8 -11 -4 -7 -9 -8 -17 0 -7 7 -16 7 -29 0 -10 -5 -23 -7 -28 -4 -6 4
-10 3 -9 -2 5 -27 -2 -45 -16 -39 -9 3 -20 -2 -27 -13 -9 -16 -16 -17 -40 -9
-22 8 -37 6 -64 -7 -19 -9 -48 -17 -64 -17 -17 -1 -30 -5 -30 -10 0 -5 4 -6
10 -3 5 3 10 2 10 -4 0 -15 -34 -31 -65 -31 -22 0 -25 -3 -19 -25 7 -28 -6
-32 -52 -15 -24 9 -26 8 -21 -10 4 -15 0 -20 -13 -20 -10 0 -25 -6 -32 -13
-21 -20 -70 -36 -110 -36 -28 1 -51 -9 -90 -37 -29 -21 -60 -46 -68 -55 -8 -8
-27 -19 -42 -23 -16 -3 -28 -10 -28 -15 0 -4 -20 -9 -46 -9 -29 -2 -52 -9 -66
-22 -26 -24 -34 -25 -42 -5 -4 11 -22 15 -69 15 -43 0 -68 5 -76 14 -18 21
-62 30 -72 14 -16 -24 -9 -80 13 -122 13 -22 25 -43 28 -46 3 -3 6 -14 8 -25
2 -11 20 -35 40 -54 93 -84 233 -111 372 -71 41 12 111 27 155 32 120 14 195
34 276 72 91 42 137 73 227 154 70 63 136 112 150 112 5 0 16 -22 26 -50 23
-63 45 -91 101 -127 43 -27 59 -52 33 -54 -7 0 -3 -5 9 -11 22 -10 21 -12 -25
-41 -43 -27 -45 -31 -27 -39 48 -21 145 58 176 144 10 28 10 46 1 75 -17 60
-25 130 -18 167 4 18 28 62 54 97 53 71 75 114 91 175 6 23 29 62 51 87 33 37
52 49 107 66 74 22 141 61 218 126 63 54 94 70 107 57 5 -5 14 -43 19 -83 11
-86 27 -149 28 -111 2 46 32 131 61 171 17 22 30 44 30 48 1 9 68 83 75 83 2
0 1 -8 -2 -17 -6 -15 -5 -16 9 -3 8 8 13 21 11 28 -3 8 0 10 10 6 8 -3 18 0
23 7 5 8 3 10 -7 4 -8 -5 -11 -4 -6 1 5 5 12 9 15 10 4 0 20 6 35 12 15 7 39
15 52 18 16 4 31 20 42 43 9 20 21 39 26 42 12 9 16 112 4 126 -6 9 -6 13 2
13 6 0 11 11 11 24 0 13 6 29 14 35 22 18 74 16 96 -4 11 -10 28 -15 40 -12
14 4 20 0 20 -12 0 -9 10 -21 22 -26 11 -6 29 -24 38 -41 14 -28 18 -30 28
-15 11 15 13 14 25 -3 6 -10 27 -35 46 -55 18 -20 37 -45 42 -56 5 -11 13 -27
18 -35 21 -35 80 -313 80 -380 l0 -35 -16 40 c-8 22 -20 64 -26 92 -6 29 -18
55 -26 58 -23 9 -25 -2 -7 -39 9 -18 17 -56 18 -82 3 -46 1 -49 -20 -48 -22 1
-23 -2 -17 -34 4 -24 2 -37 -7 -43 -10 -7 -9 -14 5 -38 16 -28 17 -33 2 -61
-16 -31 -12 -56 7 -44 8 5 9 -16 4 -69 -5 -60 -4 -77 6 -78 7 0 4 -4 -7 -9
-11 -5 -14 -9 -7 -9 10 -1 12 -12 8 -44 -3 -23 -9 -62 -12 -87 -3 -25 -8 -62
-11 -82 -3 -21 -10 -38 -15 -38 -6 0 -8 -6 -5 -14 3 -7 -6 -30 -19 -50 -14
-20 -22 -36 -19 -36 3 0 -5 -15 -19 -33 -15 -19 -26 -39 -26 -44 0 -6 -6 -13
-13 -16 -12 -5 -42 -45 -84 -115 l-20 -33 -46 48 c-25 26 -70 80 -100 120 -30
39 -58 69 -63 65 -4 -4 -4 -2 0 5 4 7 0 23 -8 35 -14 23 -32 86 -28 101 2 5
-1 6 -6 3 -5 -3 -15 7 -23 22 -8 15 -20 33 -26 40 -7 7 -13 18 -13 24 0 6 -3
9 -6 6 -3 -3 6 -28 20 -54 13 -27 36 -83 51 -124 14 -41 51 -128 82 -193 l56
-117 374 0 373 0 0 53 c0 73 12 86 90 93 85 9 106 19 60 31 -46 12 -48 31 -16
169 28 120 27 133 -18 214 -30 54 -30 57 -31 205 0 176 -8 199 -86 235 -49 24
-60 43 -98 170 -59 201 -123 374 -141 385 -5 3 -7 12 -3 20 3 8 0 15 -7 15 -7
0 -10 6 -7 14 3 8 -1 17 -9 20 -8 3 -14 15 -14 26 0 11 -6 20 -14 20 -9 0 -12
7 -9 20 3 11 1 20 -5 20 -5 0 -17 12 -27 26 -9 15 -12 23 -6 20 6 -4 11 -2 11
4 0 7 -9 14 -20 17 -11 3 -21 12 -21 19 -1 8 -2 19 -3 25 0 7 -10 15 -21 20
-11 4 -14 8 -7 8 7 1 10 6 7 11 -4 6 -10 8 -15 5 -5 -3 -12 0 -16 6 -4 8 -3 9
4 5 7 -4 12 -2 12 3 0 6 -6 11 -14 11 -8 0 -18 5 -22 12 -5 7 -2 8 7 3 8 -4 1
6 -15 23 -26 28 -28 34 -18 58 10 21 9 32 -4 60 -9 19 -20 37 -25 40 -12 7
-11 0 3 -31 6 -14 9 -28 5 -31 -8 -9 -108 59 -104 71 2 5 21 8 41 7 26 -3 36
0 32 7 -4 6 -31 11 -61 11 -45 0 -55 3 -60 20 -4 11 -10 18 -15 15 -4 -3 -8 1
-7 8 0 6 -1 21 -2 32 -1 16 -3 17 -10 6 -7 -11 -11 -9 -21 9 -9 18 -9 21 0 15
8 -5 11 -3 8 6 -3 8 -11 13 -17 12 -6 -2 -10 0 -9 5 0 4 -2 15 -7 25 -5 12 -1
24 10 37 11 12 13 20 7 20 -7 0 -12 -4 -12 -10 0 -5 -9 -10 -21 -10 l-20 0 20
27 c12 14 31 57 42 95 l21 68 41 0 c23 0 49 4 57 10 10 6 -1 8 -32 5 -45 -4
-47 -3 -54 28 -4 18 -5 64 -4 102 2 39 4 98 4 133 1 34 2 62 4 62 1 0 29 -28
62 -62 44 -46 64 -77 75 -112 19 -64 19 -149 0 -186 -17 -32 -61 -60 -96 -60
-12 0 -20 -3 -16 -6 3 -4 25 -6 48 -6 68 1 109 54 109 141 0 56 -36 180 -57
197 -23 20 -114 147 -150 211 -31 56 -33 66 -24 95 6 18 13 57 17 87 7 55 15
54 35 -7 25 -78 78 -215 78 -205 1 15 -56 180 -98 286 -17 43 -31 81 -31 86 0
5 20 14 45 20 63 16 120 76 141 150 14 45 16 82 10 201 -3 80 -9 161 -12 181
-6 34 -1 42 68 120 122 138 221 281 307 444 39 73 42 84 36 129 -11 85 -36
106 -62 51 -6 -14 -7 -23 -2 -19 5 3 9 0 9 -5 0 -6 5 -10 11 -9 6 2 16 -4 22
-13 8 -13 2 -30 -26 -76 -21 -34 -37 -66 -37 -74 0 -20 -23 -79 -31 -79 -4 0
-14 -17 -24 -37 -28 -63 -39 -83 -47 -83 -5 0 -8 -6 -8 -13 0 -8 -15 -28 -32
-46 -69 -67 -78 -79 -78 -95 0 -15 -4 -18 -32 -20 -7 -1 -33 -21 -58 -46 -49
-49 -77 -65 -130 -76 -19 -3 -39 -9 -44 -12 -5 -3 -22 -6 -38 -7 -21 -2 -28 1
-24 11 3 8 3 14 0 14 -2 0 -9 -12 -15 -26 -14 -38 -23 -22 -10 18 6 19 13 68
15 109 5 74 31 143 74 193 17 19 16 19 -13 1 -33 -21 -78 -65 -102 -101 -14
-22 -14 -24 1 -24 13 0 14 -10 10 -61 -3 -33 -11 -77 -18 -97 -13 -38 -35 -49
-44 -22 -4 12 -3 13 10 2 14 -11 14 -7 8 30 -5 23 -7 46 -5 52 2 6 6 26 9 45
l6 35 -24 -23 c-34 -32 -58 -24 -72 24 -13 43 -16 155 -5 194 10 36 36 42 27
7 -6 -24 -4 -27 16 -24 36 5 91 128 58 128 -5 0 -10 -7 -10 -15 0 -22 -16 -18
-27 8 -11 22 -11 22 -18 -5 -8 -31 -25 -38 -25 -10 1 40 16 47 100 44 73 -3
212 -31 228 -46 3 -4 0 -16 -7 -28 -24 -38 4 -10 69 70 36 44 75 86 87 93 23
12 38 38 28 48 -3 3 -12 1 -19 -4 -59 -44 -65 -46 -100 -40 -45 9 -134 84
-114 97 10 7 10 8 -2 6 -8 -1 -26 4 -40 12 -14 8 -53 15 -88 16 -34 1 -66 4
-69 8 -11 11 -30 94 -24 103 3 5 39 28 79 52 39 24 72 46 72 49 0 9 -35 32
-101 67 -37 19 -69 41 -73 50 -11 31 -6 132 9 169 18 42 5 49 -16 9 -19 -36
-41 -63 -53 -63 -5 0 -20 -9 -32 -21 l-22 -21 -14 24 c-16 28 -155 161 -185
177 -19 10 -20 8 -16 -12 3 -12 10 -27 14 -33 5 -6 6 -14 2 -17 -11 -11 -23
-8 -23 7 0 7 -9 25 -21 40 -14 18 -16 26 -7 26 21 1 -11 16 -93 46 -68 24
-234 46 -184 24 20 -9 20 -9 -2 -15 -12 -4 -19 -13 -17 -19 6 -15 -10 -29 -51
-45 l-30 -11 33 5 c17 2 32 0 32 -5 0 -6 10 -10 23 -10 19 -1 18 -2 -8 -14
l-30 -12 25 -7 c23 -7 23 -8 7 -18 -9 -6 -14 -15 -11 -21 5 -8 1 -9 -10 -5 -9
4 -15 3 -12 -2 6 -9 -44 -23 -125 -36 -31 -5 -35 -3 -34 14 1 11 8 27 16 37
13 16 12 16 -11 5 -20 -9 -18 -6 10 19 30 27 32 35 8 31 -12 -2 -10 5 13 49
12 23 19 43 16 46 -3 3 -24 0 -47 -7 -51 -15 -55 -11 -65 75 -3 33 -15 79 -25
101 -19 41 -75 112 -67 84z m-226 -385 c-40 -37 -64 -40 -31 -3 16 18 48 37
64 38 3 0 -12 -16 -33 -35z m33 -25 c0 -6 6 -9 13 -6 8 3 13 -2 12 -12 -2 -25
-13 -40 -55 -70 l-37 -27 66 4 c36 3 70 10 74 16 6 7 7 7 5 -3 -3 -10 -142
-56 -185 -61 -6 -1 50 90 62 100 11 9 12 16 5 25 -8 9 -6 17 5 29 19 19 35 21
35 5z m612 -20 c-45 -33 -58 -52 -17 -25 30 20 35 20 35 1 0 -8 -5 -15 -11
-15 -5 0 -7 -5 -4 -11 4 -6 -1 -16 -11 -24 -11 -7 -16 -17 -11 -21 4 -4 7 -2
7 4 0 6 7 9 15 6 26 -10 17 -30 -32 -70 -70 -55 -81 -62 -60 -38 21 26 22 35
0 27 -11 -4 -14 -3 -9 5 12 19 -13 14 -47 -10 -18 -12 -26 -15 -19 -8 6 8 12
19 12 25 0 6 -3 7 -8 0 -4 -5 -21 -21 -37 -35 -26 -22 -28 -22 -11 -2 11 12
16 22 12 22 -4 0 -2 9 4 20 18 34 -6 23 -38 -17 -16 -21 -39 -56 -51 -78 -13
-24 -19 -30 -15 -15 4 14 19 43 34 65 15 22 28 44 28 48 1 4 8 14 16 22 8 8
24 27 35 41 20 26 183 114 210 114 8 0 -4 -14 -27 -31z m296 3 c3 -9 -2 -13
-14 -10 -9 1 -19 9 -22 16 -3 9 2 13 14 10 9 -1 19 -9 22 -16z m-798 -36 c0
-2 -8 -10 -17 -17 -16 -13 -17 -12 -4 4 13 16 21 21 21 13z m-245 -35 c4 -22
-10 -30 -18 -8 -4 13 3 40 10 34 2 -2 5 -14 8 -26z m1070 -19 c-8 -9 -35 20
-28 31 4 6 11 3 19 -8 8 -10 12 -21 9 -23z m-270 -21 c-3 -5 4 -12 15 -16 11
-3 20 -14 20 -22 0 -22 -29 -53 -50 -53 -9 0 -22 -6 -29 -12 -11 -10 -13 -10
-7 0 11 18 -2 15 -37 -10 -29 -20 -31 -20 -14 -2 9 12 15 23 12 26 -7 7 74 98
86 98 6 0 8 -4 4 -9z m-309 -50 c-10 -10 -27 -21 -39 -24 -18 -5 -15 0 12 23
37 32 55 32 27 1z m376 -25 c6 4 3 -7 -8 -25 -10 -17 -24 -31 -30 -31 -6 0
-17 -7 -24 -15 -28 -34 -21 -3 11 47 24 36 35 47 37 35 2 -9 8 -14 14 -11z
m-422 -47 c-12 -16 -25 -28 -28 -24 -3 3 -1 10 5 16 6 6 9 18 6 25 -3 9 2 14
17 14 l21 0 -21 -31z m-51 -46 c-36 -45 -44 -53 -53 -53 -6 0 5 16 24 35 36
37 52 47 29 18z m575 2 c36 -24 50 -67 43 -138 -8 -82 -35 -162 -64 -192 -14
-13 -22 -28 -19 -34 4 -5 -9 -17 -28 -26 -23 -11 -34 -23 -33 -36 1 -14 6 -17
22 -13 24 8 67 37 85 59 14 17 20 18 39 6 11 -7 11 -12 0 -32 -7 -13 -13 -28
-14 -33 0 -17 -25 -18 -25 -2 0 10 -9 16 -22 16 -12 0 -18 -3 -14 -7 3 -4 -19
-17 -51 -28 -54 -20 -58 -24 -61 -56 -2 -26 3 -42 23 -63 22 -24 25 -25 25 -7
0 11 9 22 19 26 11 3 23 15 26 26 7 22 23 25 31 5 8 -22 -13 -53 -41 -60 -16
-4 -25 -13 -25 -25 0 -10 -7 -21 -15 -25 -17 -6 -21 9 -5 17 6 3 5 4 -2 3 -20
-4 -17 -43 4 -66 20 -21 19 -21 -6 -55 -30 -39 -87 -85 -105 -85 -6 0 -19 -4
-29 -9 -17 -9 -82 -29 -173 -52 -57 -15 -55 -17 -172 141 -83 111 -122 188
-129 255 -2 24 -8 30 -28 30 -32 0 -39 7 -74 78 -23 48 -27 68 -24 107 5 52
49 124 71 117 7 -2 23 -19 35 -38 13 -19 30 -33 38 -33 7 1 11 -2 8 -7 -3 -5
-1 -9 5 -9 5 0 23 23 40 50 17 28 32 50 35 50 2 0 2 -12 0 -27 -7 -51 -5 -228
3 -253 11 -35 66 -130 76 -130 4 0 2 10 -4 22 -33 61 -51 213 -30 247 7 11 11
9 21 -9 l13 -24 14 27 c17 33 20 34 20 5 -2 -34 12 -92 20 -85 3 4 11 3 18 -3
15 -12 75 24 82 50 6 24 21 17 34 -17 11 -29 29 -22 29 12 0 13 3 32 7 42 6
15 9 13 14 -12 l7 -30 1 28 c1 18 5 26 12 21 8 -5 10 0 6 17 -4 14 -2 38 2 54
9 28 9 27 11 -15 1 -25 12 -67 24 -95 l23 -50 -5 54 c-3 39 -2 52 7 47 7 -5
11 1 11 16 0 17 3 19 9 9 15 -24 20 5 5 33 -18 36 -18 65 0 72 8 3 18 18 21
33 7 31 54 80 100 104 37 20 31 20 59 2z m-289 -115 c-5 -15 -10 -19 -17 -12
-7 7 -6 15 3 25 18 19 23 14 14 -13z m-141 -37 c-4 -21 -8 -41 -10 -44 -5 -9
-74 -9 -74 0 0 12 70 81 81 81 6 0 7 -16 3 -37z m136 -13 c0 -4 -3 -22 -6 -39
-5 -25 -12 -31 -31 -31 -32 0 -56 25 -48 50 3 11 11 20 16 20 6 0 8 4 5 9 -4
5 0 11 6 14 15 5 58 -13 58 -23z m-278 -22 c-8 -8 -9 -4 -5 13 4 13 8 18 11
10 2 -7 -1 -18 -6 -23z m171 -13 c-3 -9 -8 -14 -10 -11 -3 3 -2 9 2 15 9 16
15 13 8 -4z m-14 -79 c-3 -3 -16 -2 -29 1 -22 6 -22 7 -4 14 18 6 43 -5 33
-15z m-17 -56 c23 0 24 -18 2 -27 -11 -4 -22 1 -30 12 -17 23 -18 43 -2 27 7
-7 20 -12 30 -12z m-461 -13 c-10 -9 -11 -8 -5 6 3 10 9 15 12 12 3 -3 0 -11
-7 -18z m959 13 c0 -5 -4 -10 -10 -10 -5 0 -10 5 -10 10 0 6 5 10 10 10 6 0
10 -4 10 -10z m-896 -154 c-9 -15 -19 -25 -21 -22 -5 5 30 56 35 51 2 -2 -4
-15 -14 -29z m722 -64 c-22 -5 -30 3 -21 18 5 8 11 7 22 -2 15 -12 14 -13 -1
-16z m-819 -4 c-3 -8 -6 -5 -6 6 -1 11 2 17 5 13 3 -3 4 -12 1 -19z m144 -25
c-11 -21 -20 -35 -21 -32 0 14 31 81 36 76 3 -3 -4 -22 -15 -44z m-104 -25
c-3 -7 -5 -2 -5 12 0 14 2 19 5 13 2 -7 2 -19 0 -25z m258 -143 c48 -133 49
-133 36 -113 -10 15 -83 35 -106 29 -5 -1 -4 3 3 10 6 7 12 20 11 29 0 10 -2
11 -6 3 -10 -26 -22 -12 -17 20 3 25 2 27 -5 12 -13 -29 -29 -39 -93 -59 -42
-13 -62 -15 -75 -7 -15 8 -10 10 25 11 53 0 54 12 2 35 -55 25 -133 100 -85
81 8 -3 15 0 15 6 0 7 5 6 15 -2 12 -10 15 -10 15 0 0 7 21 -11 46 -39 62 -70
77 -67 102 17 12 37 24 85 27 106 l7 39 25 -44 c14 -24 40 -84 58 -134z m-284
107 c-7 -2 -18 1 -23 6 -8 8 -4 9 13 5 13 -4 18 -8 10 -11z m1203 -68 c3 -9 6
-32 6 -53 0 -20 5 -42 11 -48 9 -9 5 -14 -16 -19 -43 -11 -58 35 -34 105 12
34 24 40 33 15z m606 2 c0 -2 -8 -10 -17 -17 -16 -13 -17 -12 -4 4 13 16 21
21 21 13z m-950 -126 c0 -5 -2 -10 -4 -10 -3 0 -8 5 -11 10 -3 6 -1 10 4 10 6
0 11 -4 11 -10z m424 -49 c-4 -23 -9 -40 -11 -37 -3 3 -2 23 2 46 4 23 9 39
11 37 3 -2 2 -23 -2 -46z m23 -13 c-3 -8 -6 -5 -6 6 -1 11 2 17 5 13 3 -3 4
-12 1 -19z m-1267 -67 c0 -4 -12 -7 -27 -8 -16 0 -20 1 -10 4 9 2 15 9 12 14
-3 5 1 6 9 3 9 -3 16 -9 16 -13z m1257 -13 c-3 -8 -6 -5 -6 6 -1 11 2 17 5 13
3 -3 4 -12 1 -19z m302 -60 c19 -60 33 -192 26 -256 -12 -109 -29 -136 -128
-191 -56 -31 -71 -28 -62 12 15 72 47 276 52 337 4 55 10 70 36 98 17 17 39
32 48 32 11 0 22 -12 28 -32z m-1388 -40 c8 -14 2 -18 -36 -24 -25 -3 -48 -4
-51 -1 -3 3 2 17 11 31 9 14 13 30 9 37 -4 7 8 3 25 -7 18 -10 37 -27 42 -36z
m759 -35 c0 -7 -9 -17 -21 -23 -17 -9 -23 -8 -35 7 -19 26 -17 37 9 49 17 8
25 7 35 -5 6 -8 12 -21 12 -28z m-586 -9 c3 -8 2 -12 -4 -9 -6 3 -10 10 -10
16 0 14 7 11 14 -7z m1062 -119 c-4 -75 -10 -143 -13 -151 -14 -36 -27 24 -31
137 -4 113 -4 117 19 133 13 9 25 16 27 16 2 0 1 -61 -2 -135z m-689 99 c-3
-3 -12 -4 -19 -1 -8 3 -5 6 6 6 11 1 17 -2 13 -5z m63 -14 c18 -12 2 -12 -25
0 -13 6 -15 9 -5 9 8 0 22 -4 30 -9z m-42 -15 c10 -9 -33 -5 -48 5 -11 8 -8 9
14 6 16 -3 31 -8 34 -11z m-108 -15 c16 -10 15 -11 -23 -28 -40 -17 -47 -15
-45 13 2 20 8 25 28 25 14 0 32 -4 40 -10z m656 -90 c16 -53 18 -99 5 -84 -10
9 -51 113 -51 127 0 5 7 7 16 5 10 -2 22 -22 30 -48z m-93 -78 c17 -19 17 -23
3 -50 -17 -32 -91 -92 -114 -92 -8 0 6 16 32 36 35 26 46 40 41 52 -4 10 -9
34 -10 54 -3 33 -1 37 13 29 10 -5 25 -18 35 -29z m177 -68 c0 -25 -17 -41
-30 -28 -4 5 -5 27 -2 48 4 36 6 38 18 21 8 -10 14 -29 14 -41z m-264 -6 c-18
-26 -22 -17 -5 14 6 11 13 17 16 15 3 -3 -2 -16 -11 -29z m-106 -108 c0 -5 -5
-10 -11 -10 -5 0 -7 5 -4 10 3 6 8 10 11 10 2 0 4 -4 4 -10z m-363 -73 c-9
-29 -34 -29 -66 1 l-33 29 52 -10 c28 -5 49 -14 47 -20z m269 21 c9 -15 -23
-38 -44 -31 -43 13 -62 27 -50 35 19 12 86 10 94 -4z m-433 -28 c90 -30 101
-40 93 -90 -6 -38 -40 -100 -59 -108 -4 -2 -5 -8 -1 -13 3 -5 1 -9 -4 -9 -4 0
-18 -9 -31 -21 -12 -12 -25 -18 -28 -15 -4 3 -13 -3 -20 -14 -8 -11 -19 -18
-24 -15 -5 4 -16 -1 -25 -9 -8 -9 -30 -16 -48 -16 -18 0 -36 -3 -40 -7 -3 -4
-12 -8 -19 -9 -8 -1 -40 -14 -72 -29 -86 -41 -175 -45 -248 -12 -80 36 -105
92 -72 157 15 29 73 80 92 80 5 0 18 9 28 21 34 37 169 92 280 115 89 17 129
16 198 -6z m316 -14 c-3 -3 -11 5 -18 17 -13 21 -12 21 5 5 10 -10 16 -20 13
-22z m154 -9 c-17 -20 -17 -20 2 -12 11 4 49 10 85 13 57 3 75 0 132 -26 36
-16 75 -39 87 -51 22 -22 29 -75 11 -86 -5 -3 -10 -14 -10 -22 0 -22 -42 -83
-56 -83 -7 0 -25 -7 -40 -15 -35 -18 -99 -21 -88 -3 5 7 3 8 -5 4 -7 -5 -27
-2 -44 5 -36 14 -120 69 -125 81 -2 4 -9 5 -15 1 -7 -3 -9 -3 -5 2 4 4 2 17
-4 29 -7 11 -12 24 -11 27 1 3 -2 22 -7 42 -7 31 -5 37 12 43 12 3 18 13 16
26 -2 15 6 26 27 38 40 23 62 15 38 -13z m404 -224 c-3 -10 -5 -2 -5 17 0 19
2 27 5 18 2 -10 2 -26 0 -35z m47 -76 c15 -37 32 -146 21 -135 -6 6 -44 143
-45 161 0 17 11 5 24 -26z m-63 0 c-10 -9 -11 -8 -5 6 3 10 9 15 12 12 3 -3 0
-11 -7 -18z m-1476 -27 c-3 -4 0 -10 7 -12 7 -3 9 -11 4 -24 -8 -19 -8 -19
-16 1 -12 29 -12 57 0 50 6 -4 8 -10 5 -15z m1437 -20 c-35 -30 -69 -46 -79
-36 -4 3 0 6 9 6 8 0 32 13 54 30 50 38 59 38 16 0z m-114 -44 c3 -3 -9 -6
-26 -6 -18 0 -32 4 -32 9 0 9 48 6 58 -3z m91 -98 c18 -76 14 -148 -11 -198
-37 -72 -87 -86 -54 -15 21 45 36 131 36 215 0 71 11 71 29 -2z m-1820 -43 c0
-14 -4 -12 -13 10 -7 17 -10 37 -7 45 6 17 19 -19 20 -55z m1680 1 c17 -68 15
-146 -4 -146 -8 0 -23 13 -33 30 -17 27 -17 34 -3 95 8 36 18 65 22 65 4 0 12
-20 18 -44z m-1738 -9 c-13 -13 -26 -3 -16 12 3 6 11 8 17 5 6 -4 6 -10 -1
-17z m384 -57 c15 -41 30 -88 34 -105 5 -16 18 -47 29 -67 12 -21 18 -39 14
-42 -19 -12 -97 85 -88 110 3 8 -1 28 -9 44 -13 25 -22 151 -10 139 2 -3 16
-38 30 -79z m1540 -1 c16 -31 13 -71 -5 -53 -10 11 -25 84 -16 84 3 0 13 -14
21 -31z m-302 -39 c-6 -23 -33 -27 -33 -6 0 13 13 23 32 25 3 1 4 -8 1 -19z
m187 -2 c0 -35 -22 -88 -36 -88 -9 0 -13 6 -10 13 2 6 10 29 17 50 12 36 29
50 29 25z m158 -63 c18 -68 15 -99 -12 -124 -28 -26 -52 -23 -86 14 l-23 24
30 25 c16 14 38 43 48 65 10 23 21 41 24 41 4 0 12 -20 19 -45z m-348 -35 c16
10 77 14 67 4 -3 -3 5 -18 19 -32 13 -15 24 -32 24 -39 0 -7 7 -13 15 -13 8 0
15 -4 15 -9 0 -5 11 -12 25 -15 14 -4 32 -18 42 -32 14 -22 14 -29 4 -46 -22
-36 -43 -120 -33 -130 6 -6 14 9 22 40 l12 50 35 -14 c32 -14 36 -14 48 3 13
17 15 15 29 -19 20 -48 20 -102 0 -162 -16 -47 -68 -115 -79 -104 -7 7 12 120
26 156 12 31 11 72 -1 72 -6 0 -13 -13 -16 -28 -3 -16 -20 -44 -37 -62 l-31
-34 -7 25 c-4 13 -7 17 -8 8 -1 -9 -7 -22 -15 -28 -12 -10 -18 1 -36 61 -25
80 -47 125 -102 208 -33 48 -38 64 -41 130 -3 41 -2 58 2 38 5 -30 9 -36 21
-28z m564 -435 c11 -8 16 -18 12 -22 -3 -4 -16 3 -28 15 -25 25 -13 29 16 7z
m-1678 -210 c-9 -13 -16 -31 -16 -40 0 -8 -4 -15 -10 -15 -17 0 -11 33 12 70
12 21 23 30 25 22 3 -7 -2 -24 -11 -37z m787 -35 c-6 -22 -23 -38 -23 -21 0
17 12 41 20 41 5 0 6 -9 3 -20z m10 -55 c-7 -21 -13 -19 -13 6 0 11 4 18 10
14 5 -3 7 -12 3 -20z m841 -54 c3 -4 -4 -7 -14 -6 -27 2 -33 10 -10 12 11 1
22 -2 24 -6z m-1178 -93 c4 -5 -4 -8 -17 -6 -12 1 -24 8 -26 15 -5 14 34 6 43
-9z m-726 -1137 c0 -5 -7 -11 -15 -15 -9 -3 -15 0 -15 9 0 8 7 15 15 15 8 0
15 -4 15 -9z m-416 -42 c-7 -11 -34 -12 -34 -1 0 14 11 21 26 15 8 -3 11 -9 8
-14z"/>
<path d="M1562 4638 c-19 -19 -14 -30 8 -18 16 8 20 8 20 -4 0 -7 7 -16 14
-19 16 -6 12 16 -7 41 -12 15 -20 15 -35 0z"/>
<path d="M1587 4543 c-13 -13 -7 -21 13 -16 11 3 20 9 20 14 0 10 -24 12 -33
2z"/>
<path d="M2160 4259 c0 -12 -8 -28 -17 -35 -19 -14 -7 -19 14 -6 16 10 28 62
14 62 -6 0 -11 -10 -11 -21z"/>
<path d="M1948 4153 c-46 -12 9 -93 63 -93 28 0 69 37 69 62 0 27 -78 45 -132
31z m42 -75 c0 -5 -7 -3 -15 6 -8 8 -15 18 -15 22 0 3 7 1 15 -6 8 -7 15 -17
15 -22z"/>
<path d="M2380 3730 c-12 -7 -10 -9 7 -7 12 0 19 5 17 9 -6 10 -6 10 -24 -2z"/>
<path d="M1387 5314 c-34 -18 -33 -19 16 -28 36 -7 38 -6 35 15 -4 29 -16 32
-51 13z"/>
<path d="M1940 5200 c-8 -5 -10 -10 -5 -10 6 0 17 5 25 10 8 5 11 10 5 10 -5
0 -17 -5 -25 -10z"/>
<path d="M1220 4900 c6 -11 13 -20 16 -20 2 0 0 9 -6 20 -6 11 -13 20 -16 20
-2 0 0 -9 6 -20z"/>
<path d="M3340 4553 c3 -32 9 -58 14 -58 6 0 19 15 29 33 l19 33 -23 25 c-36
38 -45 31 -39 -33z"/>
<path d="M952 4448 c-6 -13 -18 -43 -26 -68 -13 -39 -13 -42 0 -26 7 11 14 27
14 35 0 9 9 31 20 49 11 17 16 32 12 32 -5 0 -14 -10 -20 -22z"/>
<path d="M871 4165 c-22 -69 -28 -160 -12 -169 5 -4 12 33 16 81 4 48 12 101
16 117 5 16 7 32 5 34 -3 2 -14 -26 -25 -63z"/>
<path d="M941 4002 c-6 -12 -11 -29 -10 -39 0 -11 6 -6 15 16 16 37 12 55 -5
23z"/>
<path d="M940 3792 c0 -7 -46 -83 -103 -169 -124 -190 -142 -220 -173 -284
-30 -62 -30 -69 0 -36 14 15 73 49 132 77 59 28 127 67 151 86 24 20 47 34 50
31 3 -3 -2 -27 -10 -54 -8 -26 -18 -68 -20 -93 -5 -44 -5 -44 5 -10 6 19 23
77 38 129 27 88 28 97 14 124 -9 16 -28 67 -43 113 -27 81 -41 111 -41 86z"/>
<path d="M1271 3784 c0 -11 3 -14 6 -6 3 7 2 16 -1 19 -3 4 -6 -2 -5 -13z"/>
<path d="M1256 3716 c-4 -21 -5 -40 -2 -43 7 -8 18 42 14 64 -3 11 -7 3 -12
-21z"/>
<path d="M1590 3700 c-8 -5 -27 -10 -42 -10 -15 0 -29 -4 -33 -9 -3 -6 9 -7
30 -4 30 5 35 3 35 -15 0 -25 -17 -32 -53 -19 -30 10 -37 7 -41 -15 -1 -7 -12
-29 -25 -48 l-23 -35 31 35 c33 38 40 35 14 -8 -10 -18 -5 -14 16 11 18 20 37
37 42 37 5 0 7 -25 4 -57 -4 -50 -3 -54 6 -28 6 17 14 44 18 60 l8 30 18 -40
c16 -35 19 -37 22 -17 3 12 -3 29 -11 38 -9 8 -16 18 -16 21 0 5 35 -2 66 -14
11 -4 15 -3 10 5 -3 6 -2 13 4 17 17 11 11 22 -14 27 -15 3 -27 0 -30 -8 -3
-8 -13 -14 -23 -14 -16 1 -16 2 2 16 16 12 17 16 6 23 -7 5 -10 14 -7 20 9 13
6 14 -14 1z m65 -60 c-3 -5 -10 -10 -16 -10 -5 0 -9 5 -9 10 0 6 7 10 16 10 8
0 12 -4 9 -10z m-135 -16 c0 -8 -19 -13 -24 -6 -3 5 1 9 9 9 8 0 15 -2 15 -3z"/>
<path d="M1660 3565 c7 -8 20 -15 29 -15 13 1 13 3 -3 15 -26 19 -42 19 -26 0z"/>
<path d="M305 3445 c12 -59 64 -107 130 -119 l30 -6 -30 14 c-35 16 -57 39
-76 80 -8 16 -17 27 -21 25 -4 -2 -14 5 -23 16 -16 19 -16 19 -10 -10z"/>
<path d="M2514 3412 c-6 -4 -13 -15 -17 -24 -4 -12 -13 -16 -24 -12 -11 4 -14
3 -7 -3 6 -4 13 -14 15 -20 2 -7 14 5 27 27 24 42 24 45 6 32z"/>
<path d="M600 3350 c-9 -6 -10 -10 -3 -10 6 0 15 5 18 10 8 12 4 12 -15 0z"/>
<path d="M612 3202 c-7 -43 -12 -90 -12 -106 0 -44 38 -115 73 -136 46 -28 49
-15 6 30 -45 47 -55 93 -44 204 9 99 -8 104 -23 8z"/>
<path d="M925 3180 c-4 -12 -5 -24 -2 -27 3 -2 8 5 12 17 4 12 5 24 2 27 -3 2
-8 -5 -12 -17z"/>
<path d="M435 2988 c-12 -48 -23 -68 -34 -68 -12 0 -13 -2 -3 -9 7 -4 12 -12
10 -17 -2 -5 9 -34 24 -64 32 -64 70 -90 131 -89 l42 1 -34 10 c-19 5 -43 15
-53 22 -16 11 -11 12 33 8 37 -3 50 -2 45 7 -4 6 -15 11 -26 11 -45 0 -122
124 -106 170 3 8 2 31 -2 50 -8 35 -8 35 -27 -32z"/>
<path d="M732 2923 c-11 -27 -27 -65 -36 -85 -13 -31 -14 -38 -3 -38 11 0 39
43 39 57 0 2 6 26 13 55 8 29 13 54 11 55 -2 2 -12 -18 -24 -44z"/>
<path d="M755 2880 c-3 -6 1 -7 9 -4 18 7 21 14 7 14 -6 0 -13 -4 -16 -10z"/>
<path d="M3031 2874 c0 -11 3 -14 6 -6 3 7 2 16 -1 19 -3 4 -6 -2 -5 -13z"/>
<path d="M2250 2874 c0 -5 7 -18 15 -28 8 -11 15 -16 15 -10 0 5 -7 18 -15 28
-8 11 -15 16 -15 10z"/>
<path d="M623 2743 c9 -2 17 -9 17 -14 0 -6 5 -7 10 -4 19 12 10 25 -17 24
-17 -1 -21 -3 -10 -6z"/>
<path d="M1716 2662 c-3 -6 -1 -14 5 -17 15 -10 25 3 12 16 -7 7 -13 7 -17 1z"/>
<path d="M1795 2630 c4 -6 11 -8 16 -5 14 9 11 15 -7 15 -8 0 -12 -5 -9 -10z"/>
<path d="M568 2614 c-17 -17 -7 -73 17 -102 14 -17 25 -34 25 -40 0 -12 68 2
83 17 8 8 2 11 -19 11 -33 0 -53 28 -55 73 0 17 -4 14 -14 -13 -14 -38 -22
-30 -27 28 -2 19 -6 30 -10 26z"/>
<path d="M3050 2550 c-6 -11 -8 -20 -6 -20 3 0 10 9 16 20 6 11 8 20 6 20 -3
0 -10 -9 -16 -20z"/>
<path d="M620 2434 c0 -11 38 -74 45 -74 2 0 -5 17 -17 38 -27 46 -28 48 -28
36z"/>
<path d="M2927 2433 c-4 -3 -7 -13 -7 -22 1 -13 3 -13 11 2 11 19 8 33 -4 20z"/>
<path d="M2142 2368 c-7 -7 -12 -19 -12 -27 0 -14 -1 -14 -10 -1 -8 12 -10 11
-10 -5 0 -11 -6 -29 -13 -40 -22 -33 -15 -66 18 -86 39 -23 45 -23 45 1 0 11
-6 20 -12 20 -9 0 -8 3 2 10 11 7 12 12 4 20 -13 13 -7 89 8 108 13 16 -4 16
-20 0z"/>
<path d="M2860 1634 c0 -9 7 -14 17 -12 25 5 28 28 4 28 -12 0 -21 -6 -21 -16z"/>
<path d="M2830 1551 c0 -12 5 -21 10 -21 6 0 10 6 10 14 0 8 -4 18 -10 21 -5
3 -10 -3 -10 -14z"/>
<path d="M1955 1210 c-3 -6 1 -7 9 -4 18 7 21 14 7 14 -6 0 -13 -4 -16 -10z"/>
<path d="M3210 1190 c0 -5 5 -10 10 -10 6 0 10 5 10 10 0 6 -4 10 -10 10 -5 0
-10 -4 -10 -10z"/>
<path d="M1350 870 c0 -5 7 -10 15 -10 8 0 15 5 15 10 0 6 -7 10 -15 10 -8 0
-15 -4 -15 -10z"/>
<path d="M1180 790 c-13 -8 -12 -10 3 -10 9 0 17 5 17 10 0 12 -1 12 -20 0z"/>
<path d="M141 624 c0 -11 3 -14 6 -6 3 7 2 16 -1 19 -3 4 -6 -2 -5 -13z"/>
<path d="M1343 291 c-7 -10 -9 -22 -6 -25 12 -12 21 -6 25 19 6 30 -3 32 -19
6z"/>
<path d="M1440 279 c0 -5 5 -7 10 -4 6 3 10 8 10 11 0 2 -4 4 -10 4 -5 0 -10
-5 -10 -11z"/>
<path d="M1540 275 c-7 -8 -23 -15 -35 -15 -30 0 -40 -27 -14 -40 16 -9 25 -6
49 12 16 13 29 31 29 41 1 21 -12 22 -29 2z"/>
</g>
</svg>
