<?xml version="1.0" standalone="no"?>
<!DOCTYPE svg PUBLIC "-//W3C//DTD SVG 20010904//EN"
 "http://www.w3.org/TR/2001/REC-SVG-20010904/DTD/svg10.dtd">
<svg version="1.0" xmlns="http://www.w3.org/2000/svg"
 width="408.000000pt" height="612.000000pt" viewBox="0 0 408.000000 612.000000"
 preserveAspectRatio="xMidYMid meet">

<g transform="translate(0.000000,612.000000) scale(0.100000,-0.100000)"
fill="#000000" stroke="none">
<path d="M2377 6025 c24 -21 25 -24 9 -25 -15 0 -12 -7 18 -40 20 -22 36 -42
36 -44 0 -2 -11 -1 -25 2 -17 3 -39 -4 -63 -21 -40 -26 -253 -248 -284 -295
-20 -30 -23 -26 -8 12 13 36 4 32 -16 -6 -30 -57 -26 -14 5 62 17 41 29 75 27
77 -14 14 -112 -200 -129 -282 -3 -12 -5 -6 -6 13 -1 47 -16 32 -41 -44 -16
-48 -21 -79 -16 -111 3 -25 2 -42 -3 -38 -5 3 -14 -18 -19 -47 -9 -44 -9 -35
-5 52 3 58 12 125 19 150 18 57 17 72 -1 40 -8 -14 -15 -20 -15 -15 0 6 -15
-15 -33 -45 -31 -54 -64 -79 -54 -43 20 73 38 165 34 169 -10 10 -77 -243 -77
-291 0 -20 -4 -34 -9 -30 -5 3 -12 -3 -14 -12 -5 -21 -11 58 -9 132 l1 50 -14
-65 c-8 -36 -14 -107 -15 -159 0 -51 -9 -157 -19 -235 -24 -177 -41 -329 -42
-381 -1 -36 -2 -37 -8 -11 -5 26 -9 19 -34 -58 -49 -157 -88 -245 -121 -281
-38 -40 -37 -44 5 -14 28 19 32 20 67 6 24 -9 52 -35 81 -71 25 -33 59 -65 80
-74 20 -9 37 -17 39 -18 2 -1 -2 -12 -8 -24 -11 -21 -11 -21 31 2 33 18 47 35
67 81 19 43 30 57 46 57 19 0 21 -5 20 -52 l-2 -53 7 50 6 50 100 -2 100 -1
-85 9 c-47 5 -90 11 -96 14 -16 5 2 97 21 108 8 4 24 25 34 45 10 20 28 45 39
55 20 18 21 18 31 0 14 -24 14 -3 0 52 -13 51 -3 175 11 140 4 -11 26 -31 49
-45 23 -14 41 -28 41 -31 0 -28 122 -117 173 -126 34 -6 76 -33 82 -53 4 -11
10 -18 15 -15 5 3 14 -13 20 -35 12 -45 20 -49 37 -20 9 13 23 19 46 18 18 -1
42 4 52 9 21 12 68 -3 59 -19 -3 -5 -15 -2 -25 8 -20 18 -27 6 -8 -13 7 -7 6
-12 -6 -17 -9 -3 -13 -2 -10 4 3 5 -9 0 -28 -13 -48 -31 -32 -32 49 -3 50 18
72 22 81 14 13 -10 18 1 14 26 -1 4 5 19 14 32 8 13 15 25 15 26 0 2 -30 3
-68 4 -52 1 -80 7 -127 30 l-60 29 -3 68 c-3 68 -3 69 -29 62 -14 -3 -52 -19
-85 -34 -47 -23 -61 -26 -65 -15 -3 8 -11 14 -18 14 -19 0 -122 73 -181 128
-29 28 -61 56 -71 64 -43 31 -108 216 -99 280 19 148 21 154 33 133 6 -11 14
-47 18 -80 11 -92 24 -99 19 -10 -4 53 -2 75 5 66 7 -11 10 -9 13 9 5 40 26
35 25 -6 -1 -27 5 -41 22 -55 26 -22 63 -27 43 -7 -7 7 -12 21 -12 33 0 15 2
17 9 6 5 -7 14 -10 20 -7 22 14 33 -5 15 -25 -16 -18 -16 -19 0 -19 18 0 56
55 56 83 0 22 6 22 42 -4 28 -20 29 -20 26 -3 -5 32 -66 73 -119 80 -27 4 -49
8 -49 9 0 14 55 95 65 95 51 0 74 -13 83 -49 l10 -36 1 35 c1 34 2 33 26 -25
14 -33 25 -61 25 -61 0 -1 6 -4 13 -7 7 -3 13 5 14 21 0 15 -2 20 -7 13 -4 -8
-12 13 -19 51 -13 66 -9 109 24 238 l13 55 3 -60 c4 -83 4 -90 -5 -182 -5 -54
-4 -83 3 -83 5 0 12 10 15 23 3 12 3 -8 2 -45 -2 -38 0 -65 5 -62 5 3 9 15 10
27 l0 22 9 -22 c9 -22 24 -28 64 -23 12 1 16 -3 11 -12 -3 -7 2 -3 13 9 10 11
29 60 42 107 13 48 25 85 27 83 2 -2 -6 -42 -17 -87 -10 -46 -18 -86 -15 -88
2 -2 18 20 35 50 29 49 31 51 27 21 -5 -41 1 -42 14 -3 14 38 59 44 60 8 0
-22 1 -22 9 -3 7 16 9 12 15 -23 11 -60 25 -62 26 -5 l1 48 11 -35 c12 -39 22
-51 54 -68 25 -14 33 -1 33 51 0 24 3 28 10 17 11 -17 13 -61 4 -84 -7 -19
-23 -20 -61 -5 -36 15 -110 11 -144 -6 -41 -22 -63 -62 -50 -91 11 -25 47 -44
82 -44 23 0 74 73 65 95 -8 23 18 18 42 -8 18 -19 19 -26 9 -36 -10 -11 -7
-12 15 -7 l26 6 -16 -41 c-8 -22 -34 -61 -56 -87 -40 -46 -30 -43 28 7 l29 26
-17 -30 c-27 -46 -39 -60 -69 -80 -37 -24 -27 -31 15 -9 32 16 33 16 17 -2
-21 -25 -41 -84 -28 -84 5 0 9 4 9 9 0 5 7 17 16 25 36 37 39 22 36 -171 -1
-104 -3 -197 -4 -208 -1 -11 1 -44 3 -73 4 -49 8 -58 51 -98 26 -24 51 -44 55
-44 4 0 22 9 40 20 25 15 36 32 48 74 9 31 14 60 10 66 -3 5 -2 10 3 10 9 0
82 175 82 195 0 6 7 21 16 33 13 18 19 21 30 11 11 -9 14 -7 14 11 0 12 12 45
26 74 l25 51 -30 -30 c-16 -16 -35 -36 -43 -42 -7 -7 -33 -33 -58 -57 -53 -52
-145 -117 -154 -109 -3 4 -6 15 -6 25 0 10 -4 18 -10 18 -5 0 -10 -12 -10 -27
0 -33 -7 -44 -37 -60 -30 -17 -33 -17 -33 9 0 12 3 18 7 15 10 -11 33 14 33
35 0 14 -5 18 -16 14 -12 -5 -15 -2 -10 10 3 8 6 32 6 52 1 46 24 82 42 64 18
-18 28 -15 28 8 0 11 7 20 15 20 8 0 18 12 22 28 l7 27 6 -27 c7 -40 34 -20
34 26 0 20 3 31 6 26 10 -16 38 62 39 106 0 23 7 66 15 95 12 39 15 89 14 179
-2 89 1 134 11 158 16 39 11 153 -14 296 -31 176 -149 361 -284 448 -64 40
-73 35 -15 -8 54 -41 124 -119 124 -137 0 -7 -12 0 -25 16 -28 31 -37 34 -29
10 5 -16 4 -16 -8 -2 -7 8 -21 18 -31 22 -20 7 -16 -2 12 -38 15 -18 15 -19 0
-7 -9 7 -21 11 -25 10 -5 -2 -26 13 -47 32 -47 43 -76 59 -102 59 -14 0 -9 -4
14 -15 41 -18 37 -28 -6 -12 -37 14 -71 4 -54 -16 9 -10 8 -15 -4 -20 -9 -3
-14 -2 -11 3 3 5 -1 12 -10 15 -13 5 -14 9 -4 21 7 8 19 15 26 15 8 0 14 5 14
11 0 14 -42 1 -57 -19 -11 -14 -13 -12 -13 12 0 41 -28 94 -65 122 -41 31 -54
31 -18 -1z m104 -179 c8 -17 8 -29 0 -42 -6 -11 -11 -14 -11 -6 0 7 -4 10 -10
7 -5 -3 -10 0 -10 7 -1 9 -5 7 -14 -5 -13 -16 -14 -16 -18 7 -5 26 16 56 39
56 8 0 18 -11 24 -24z m-182 -39 c-57 -53 -91 -100 -113 -156 -15 -40 -15 -45
-1 -67 9 -14 21 -22 26 -18 7 4 7 -2 -1 -15 -10 -19 -14 -20 -28 -9 -40 31
-42 36 -32 63 5 14 9 29 7 33 -1 4 12 32 30 63 30 54 124 149 147 149 6 0 -10
-19 -35 -43z m81 -16 c-20 -30 -40 -44 -23 -18 27 42 38 56 41 52 2 -2 -6 -18
-18 -34z m-369 -244 c-10 -9 -11 -8 -5 6 3 10 9 15 12 12 3 -3 0 -11 -7 -18z
m385 -45 c31 -15 35 -62 4 -62 -11 0 -20 6 -20 13 0 9 -2 9 -9 -1 -11 -18 -21
7 -21 52 0 37 13 58 18 28 2 -10 14 -24 28 -30z m-90 12 c-3 -9 -9 -28 -13
-42 l-6 -27 -8 28 c-9 35 -2 57 18 57 10 0 13 -6 9 -16z m164 -34 c28 -21 27
-24 -12 -34 -26 -6 -28 -4 -28 24 0 35 6 37 40 10z m140 5 c0 -8 -2 -15 -4
-15 -2 0 -6 7 -10 15 -3 8 -1 15 4 15 6 0 10 -7 10 -15z m-400 -135 l0 -100
-34 0 c-19 0 -37 4 -40 9 -5 8 62 191 70 191 2 0 4 -45 4 -100z m420 -131 c0
-17 -19 -29 -46 -29 -12 0 -14 12 -9 63 3 34 9 78 12 97 5 33 7 30 24 -40 10
-41 19 -82 19 -91z m-393 49 c-2 -18 -4 -6 -4 27 0 33 2 48 4 33 2 -15 2 -42
0 -60z m-144 12 c-4 -4 -19 -11 -32 -15 -23 -7 -23 -7 5 29 26 33 29 34 32 15
2 -12 0 -25 -5 -29z m584 -72 c-2 -13 -4 -5 -4 17 -1 22 1 32 4 23 2 -10 2
-28 0 -40z m-597 17 c0 -36 -37 -85 -64 -85 -14 0 -28 -4 -31 -10 -3 -5 -17
-10 -30 -10 -33 0 -24 21 36 81 51 51 89 62 89 24z m697 -47 c-2 -13 -4 -5 -4
17 -1 22 1 32 4 23 2 -10 2 -28 0 -40z m-979 -4 c21 -14 22 -22 19 -105 -1
-49 1 -89 5 -89 5 0 8 -25 8 -55 0 -30 -4 -55 -9 -55 -17 0 -88 95 -105 141
-17 44 -17 48 3 104 27 76 41 86 79 59z m49 -41 c-3 -10 -5 -4 -5 12 0 17 2
24 5 18 2 -7 2 -21 0 -30z m-8 -87 c-9 -8 -10 -7 -5 7 3 10 7 28 7 40 2 16 3
14 6 -7 3 -16 -1 -34 -8 -40z m981 -141 c-17 -44 -25 -20 -9 27 10 31 15 37
17 22 2 -11 -2 -33 -8 -49z m-214 29 c-9 -6 -26 -10 -36 -7 -33 9 -22 22 16
21 32 -1 34 -3 20 -14z m214 -94 c0 -5 -10 -15 -22 -21 l-23 -12 20 21 c23 24
25 25 25 12z m97 -142 c-3 -7 -5 -2 -5 12 0 14 2 19 5 13 2 -7 2 -19 0 -25z
m-947 -67 c7 10 11 10 24 0 12 -10 16 -34 16 -102 0 -118 -17 -159 -81 -199
-27 -16 -53 -30 -58 -30 -5 0 -14 -7 -21 -15 -7 -8 -16 -15 -21 -15 -13 0 -8
83 6 97 9 8 11 27 8 52 -7 48 5 131 18 131 5 0 9 -37 10 -82 l0 -83 14 50 c8
28 14 74 15 102 0 49 2 53 23 50 18 -2 23 4 26 28 2 17 6 24 8 16 4 -11 7 -11
13 0z m-40 -21 c0 -5 -2 -10 -4 -10 -3 0 -8 5 -11 10 -3 6 -1 10 4 10 6 0 11
-4 11 -10z m-333 -152 c-3 -8 -6 -5 -6 6 -1 11 2 17 5 13 3 -3 4 -12 1 -19z
m200 -10 c-3 -8 -6 -5 -6 6 -1 11 2 17 5 13 3 -3 4 -12 1 -19z m1168 -55 c-12
-17 -13 -23 -4 -18 8 5 5 -2 -5 -14 -24 -27 -56 -24 -67 7 -7 19 -5 22 19 22
33 0 46 9 56 35 6 13 10 16 13 7 3 -7 -3 -24 -12 -39z m-1167 -73 c-3 -55 -21
-72 -26 -26 -4 36 5 76 19 76 6 0 9 -20 7 -50z m1101 -10 c13 -1 12 -3 -4 -16
-11 -8 -30 -13 -42 -11 -12 2 -20 0 -17 -4 10 -17 48 -9 83 18 l36 28 -34 -44
c-38 -48 -76 -70 -92 -54 -10 10 -17 36 -24 88 l-4 30 14 -25 14 -25 1 28 0
28 26 -20 c15 -12 34 -21 43 -21z m-1348 7 c-10 -9 -11 -8 -5 6 3 10 9 15 12
12 3 -3 0 -11 -7 -18z m166 1 c-3 -8 -6 -5 -6 6 -1 11 2 17 5 13 3 -3 4 -12 1
-19z m162 -75 c-5 -26 -7 -55 -4 -64 5 -14 1 -16 -15 -12 -11 3 -20 11 -20 18
0 27 33 105 45 105 1 0 -2 -21 -6 -47z m-176 10 c-13 -37 -45 -73 -64 -73 -25
0 -99 23 -99 31 0 4 25 5 55 3 30 -2 55 1 55 6 0 5 7 7 15 4 10 -4 18 3 25 20
5 14 12 26 14 26 3 0 3 -8 -1 -17z m57 -27 c0 -13 -9 -34 -20 -47 l-20 -24 6
35 c8 50 12 60 24 60 5 0 10 -11 10 -24z m1153 -18 c-8 -31 -43 -68 -64 -68
-19 0 -34 16 -44 48 l-7 23 33 -16 c32 -17 33 -17 52 9 23 32 37 34 30 4z
m-1179 -102 c-17 -27 -47 -33 -74 -16 -12 8 -9 10 12 10 19 0 35 10 50 31 28
37 39 15 12 -25z m31 -65 c-3 -6 -11 -11 -17 -11 -6 0 -6 6 2 15 14 17 26 13
15 -4z"/>
<path d="M1752 5136 c-17 -37 -15 -45 4 -18 8 12 14 27 12 33 -2 6 -9 -1 -16
-15z"/>
<path d="M1861 4334 c0 -11 3 -14 6 -6 3 7 2 16 -1 19 -3 4 -6 -2 -5 -13z"/>
<path d="M1816 5585 c-9 -26 -7 -32 5 -12 6 10 9 21 6 23 -2 3 -7 -2 -11 -11z"/>
<path d="M3125 5471 c-9 -22 -14 -44 -10 -51 4 -6 3 -16 -2 -23 -5 -7 -6 -28
-3 -47 5 -35 6 -35 20 -12 8 12 20 22 27 22 7 0 13 5 13 11 0 7 -10 9 -24 7
-23 -5 -24 -3 -19 26 3 17 9 46 14 65 12 48 5 49 -16 2z"/>
<path d="M3491 5444 c0 -11 3 -14 6 -6 3 7 2 16 -1 19 -3 4 -6 -2 -5 -13z"/>
<path d="M1796 5414 c-4 -14 -5 -29 -2 -31 3 -3 8 7 12 21 3 15 4 29 1 32 -2
3 -8 -7 -11 -22z"/>
<path d="M3020 5396 c0 -31 6 -34 13 -6 3 11 1 23 -4 26 -5 3 -9 -6 -9 -20z"/>
<path d="M3468 5406 c-10 -7 -18 -16 -18 -19 0 -13 35 2 38 16 4 20 2 20 -20
3z"/>
<path d="M3086 5357 c3 -10 9 -15 12 -12 3 3 0 11 -7 18 -10 9 -11 8 -5 -6z"/>
<path d="M3082 5277 c-9 -11 -10 -17 -2 -22 15 -9 23 -1 18 21 -3 15 -4 16
-16 1z"/>
<path d="M1551 5014 c0 -11 3 -14 6 -6 3 7 2 16 -1 19 -3 4 -6 -2 -5 -13z"/>
<path d="M1921 4964 c0 -11 3 -14 6 -6 3 7 2 16 -1 19 -3 4 -6 -2 -5 -13z"/>
<path d="M1598 4889 c-39 -187 -51 -384 -14 -229 9 41 22 93 27 115 6 22 9 76
7 119 l-3 79 -17 -84z"/>
<path d="M3185 4739 c-4 -6 -5 -12 -2 -15 2 -3 7 2 10 11 7 17 1 20 -8 4z"/>
<path d="M2646 4602 c-3 -5 4 -18 15 -28 21 -19 21 -19 18 5 -4 25 -23 39 -33
23z"/>
<path d="M1512 4528 c-19 -48 -37 -146 -25 -135 6 7 52 181 49 185 -2 1 -13
-21 -24 -50z"/>
<path d="M2041 4335 c0 -11 4 -27 9 -35 9 -13 10 -13 9 0 0 8 -4 24 -9 35 l-9
20 0 -20z"/>
<path d="M2060 4275 c0 -5 5 -17 10 -25 5 -8 10 -10 10 -5 0 6 -5 17 -10 25
-5 8 -10 11 -10 5z"/>
<path d="M1407 4214 l-18 -39 21 21 c12 12 20 29 18 39 -2 13 -8 6 -21 -21z"/>
<path d="M2080 4225 c0 -5 5 -17 10 -25 5 -8 10 -10 10 -5 0 6 -5 17 -10 25
-5 8 -10 11 -10 5z"/>
<path d="M2685 4211 c-3 -5 -2 -12 3 -15 5 -3 9 1 9 9 0 17 -3 19 -12 6z"/>
<path d="M3063 4175 c0 -22 2 -30 4 -17 2 12 2 30 0 40 -3 9 -5 -1 -4 -23z"/>
<path d="M2449 4175 c-15 -8 -30 -22 -33 -31 -5 -13 -3 -14 6 -7 7 5 26 19 42
31 32 25 24 28 -15 7z"/>
<path d="M2107 4160 c3 -11 9 -20 15 -20 5 0 4 9 -2 20 -6 11 -12 20 -14 20
-2 0 -2 -9 1 -20z"/>
<path d="M2733 4139 c11 -17 14 -16 20 7 1 4 -6 8 -15 10 -14 2 -15 -1 -5 -17z"/>
<path d="M3080 3904 c0 -6 12 -21 26 -35 l25 -24 -5 29 c-3 16 -8 31 -12 35
-4 3 -4 -2 -1 -11 4 -10 4 -18 0 -18 -3 0 -12 8 -19 18 -7 9 -14 12 -14 6z"/>
<path d="M1231 3864 c0 -11 3 -14 6 -6 3 7 2 16 -1 19 -3 4 -6 -2 -5 -13z"/>
<path d="M1521 3733 c-1 -12 8 -61 19 -109 16 -68 18 -94 10 -117 -20 -58 -10
-51 20 12 17 35 29 69 26 75 -3 7 -5 6 -5 -1 -1 -7 -5 -13 -10 -13 -12 0 -39
70 -50 130 -5 25 -9 35 -10 23z"/>
<path d="M2485 3548 c21 -93 25 -123 25 -198 0 -54 -5 -93 -13 -105 -16 -24
-23 -100 -9 -91 15 9 36 97 37 153 0 29 3 53 8 53 4 0 7 -6 7 -12 0 -18 59
-142 65 -136 7 7 -18 78 -28 78 -5 0 -6 7 -3 16 3 8 2 13 -2 10 -5 -3 -19 32
-31 77 -33 117 -52 177 -57 177 -2 0 -2 -10 1 -22z"/>
<path d="M1213 3475 c-1 -49 2 -77 6 -61 l6 29 30 -38 c17 -21 38 -52 47 -69
9 -17 17 -27 18 -23 0 12 -30 81 -38 87 -24 16 -57 81 -63 120 -5 33 -6 22 -6
-45z"/>
<path d="M3294 3518 c1 -7 5 -19 9 -25 5 -7 3 -21 -3 -30 -10 -16 -11 -15 -7
5 3 12 3 22 0 22 -10 0 -88 -74 -89 -85 -1 -5 -2 -18 -3 -28 0 -10 -5 -15 -11
-12 -14 8 -12 -15 3 -42 23 -41 106 -123 125 -123 30 0 52 33 52 77 0 40 30
83 58 83 7 0 12 9 12 20 0 37 -32 86 -69 106 -20 10 -40 24 -44 31 -10 17 -36
17 -33 1z m-24 -120 c0 -19 -2 -20 -10 -8 -13 19 -13 30 0 30 6 0 10 -10 10
-22z"/>
<path d="M1526 3424 c-4 -14 -5 -28 -3 -31 3 -2 8 8 11 23 4 14 5 28 3 31 -3
2 -8 -8 -11 -23z"/>
<path d="M3083 3355 c-28 -12 -53 -41 -53 -60 0 -4 11 0 25 9 13 9 34 16 45
16 22 0 38 26 24 40 -5 5 -23 3 -41 -5z"/>
<path d="M1211 3334 c0 -11 3 -14 6 -6 3 7 2 16 -1 19 -3 4 -6 -2 -5 -13z"/>
<path d="M3434 3292 c-2 -64 -28 -137 -46 -126 -6 4 -8 3 -5 -3 10 -15 -16
-33 -76 -55 l-52 -18 42 4 c45 4 57 -6 41 -36 -19 -38 3 -16 35 35 44 68 77
157 77 207 0 62 -15 54 -16 -8z"/>
<path d="M2121 3246 c23 -25 44 -46 47 -46 8 0 -64 84 -77 88 -6 2 7 -17 30
-42z"/>
<path d="M1517 3190 c9 -137 5 -214 -17 -308 -25 -104 -25 -103 5 -62 14 19
25 48 25 64 0 17 4 37 9 44 9 16 20 -83 22 -203 1 -76 2 -78 10 -35 10 48 6
227 -6 273 -5 17 -3 27 3 27 6 0 14 -16 18 -36 4 -19 13 -38 20 -41 8 -3 14
-16 14 -30 0 -13 -4 -21 -10 -18 -14 9 -13 -2 5 -39 14 -29 14 -36 1 -61 -12
-22 -12 -32 -4 -43 13 -16 16 -155 5 -242 -4 -34 -23 -87 -48 -137 -22 -45
-39 -86 -36 -90 7 -12 -15 -37 -36 -41 -15 -3 -17 3 -12 40 l5 43 -13 -45 c-8
-25 -19 -55 -26 -68 -6 -12 -9 -22 -5 -22 3 0 -19 -29 -51 -65 -31 -36 -55
-70 -53 -77 3 -8 11 -5 23 10 23 27 47 30 38 5 -12 -34 33 15 79 85 105 159
166 323 169 459 l2 48 8 -45 c10 -58 9 -228 -2 -260 -9 -25 -9 -25 16 3 14 16
26 42 26 60 1 18 4 122 8 232 l6 200 32 -62 c18 -34 37 -64 42 -67 5 -3 15
-30 21 -58 7 -29 16 -60 21 -68 15 -27 10 8 -12 92 -20 75 -20 136 1 123 6 -4
7 -11 4 -17 -4 -6 -2 -8 4 -4 6 3 14 2 17 -4 4 -7 13 -4 24 9 15 17 33 20 154
23 90 2 137 7 137 14 0 9 66 36 93 38 4 1 11 6 15 11 13 20 103 67 117 61 10
-4 12 3 8 28 -4 27 2 44 32 90 21 31 36 58 34 60 -2 2 -21 1 -41 -1 -26 -4
-35 -9 -31 -19 4 -11 9 -12 18 -4 10 8 15 8 21 -1 4 -7 3 -9 -4 -5 -6 3 -13
-3 -17 -14 -3 -11 -13 -20 -20 -20 -8 0 -19 -15 -26 -34 -7 -19 -18 -32 -24
-30 -7 3 -20 -6 -29 -20 -9 -14 -38 -37 -64 -50 -125 -63 -263 -76 -389 -37
-71 22 -182 85 -199 113 -6 10 -5 11 8 1 8 -7 18 -10 21 -6 4 3 7 1 7 -6 0 -9
16 -11 63 -7 111 10 153 24 115 39 -10 4 -10 6 0 6 6 1 12 6 12 12 0 6 11 24
25 41 14 16 25 41 25 54 0 14 5 35 11 46 8 15 8 27 0 45 -10 22 -13 23 -27 9
-17 -17 -50 -21 -58 -7 -3 5 -27 7 -53 6 -42 -3 -48 -7 -64 -38 -13 -24 -27
-36 -49 -40 -23 -5 -30 -12 -30 -30 0 -24 31 -50 102 -86 15 -8 25 -17 23 -22
-3 -4 1 -10 7 -13 7 -4 -11 -4 -41 -1 -49 4 -82 18 -79 33 1 4 -3 16 -7 26 -8
19 -9 19 -15 1 -6 -16 -10 -14 -43 14 -39 35 -73 111 -88 196 -5 34 -6 20 -2
-45z m167 -441 c3 -34 5 -87 5 -118 l-2 -56 -7 56 c-4 30 -15 67 -24 81 -12
18 -15 35 -10 54 16 66 30 59 38 -17z m-220 -624 c-9 -14 -18 -25 -20 -25 -2
0 2 11 8 25 6 14 15 25 20 25 5 0 1 -11 -8 -25z"/>
<path d="M3205 3203 c-38 -6 -65 -30 -65 -59 0 -12 -6 -25 -12 -27 -7 -3 3 -6
23 -6 40 -1 129 43 129 63 0 15 -21 36 -34 35 -6 -1 -24 -4 -41 -6z"/>
<path d="M2863 3139 c-16 -5 -15 -7 1 -16 17 -9 66 3 66 17 0 7 -47 6 -67 -1z"/>
<path d="M2466 3124 c-8 -20 -8 -24 2 -24 4 0 8 9 9 20 2 24 -3 26 -11 4z"/>
<path d="M2245 3108 c15 -24 24 -28 59 -26 40 1 40 1 6 5 -19 3 -46 14 -59 26
l-24 22 18 -27z"/>
<path d="M2588 3103 c7 -3 16 -2 19 1 4 3 -2 6 -13 5 -11 0 -14 -3 -6 -6z"/>
<path d="M2660 3100 c8 -5 15 -26 17 -47 1 -25 10 -45 26 -58 13 -12 26 -29
30 -38 4 -10 15 -20 24 -24 10 -4 32 -16 48 -28 32 -24 65 -39 77 -37 5 1 7
-1 7 -6 -5 -30 3 -34 26 -12 l25 23 0 -21 c0 -13 -6 -22 -15 -22 -10 0 -15
-10 -15 -31 0 -18 4 -28 10 -24 6 4 8 10 5 15 -3 5 -1 11 5 15 5 3 10 2 10 -3
0 -20 50 -62 75 -62 14 0 28 -7 31 -15 4 -8 10 -12 15 -9 5 3 9 -4 9 -16 0
-12 -4 -18 -11 -15 -5 4 -3 -10 6 -32 17 -40 12 -141 -5 -113 -35 57 -51 -401
-17 -508 9 -29 25 -64 37 -79 19 -24 20 -24 20 -5 0 11 -4 23 -8 26 -5 3 -17
39 -27 81 -14 63 -17 104 -12 241 2 91 7 168 10 171 16 15 26 -16 32 -95 4
-48 18 -123 32 -167 14 -44 29 -98 34 -120 6 -35 7 -32 5 20 -2 33 -13 103
-26 155 -19 81 -23 133 -27 363 -4 188 -9 267 -17 267 -6 0 -4 5 4 10 17 11
10 13 -42 10 -57 -2 -147 19 -208 50 -71 36 -96 57 -119 100 -10 19 -23 35
-29 35 -6 0 -14 3 -18 8 -4 4 -14 7 -23 7 -14 0 -14 -2 -1 -10z m60 -35 c14
-19 14 -19 -2 -6 -10 7 -18 18 -18 24 0 6 1 8 3 6 1 -2 9 -13 17 -24z"/>
<path d="M2978 3103 c6 -2 18 -2 25 0 6 3 1 5 -13 5 -14 0 -19 -2 -12 -5z"/>
<path d="M2408 3093 c7 -3 16 -2 19 1 4 3 -2 6 -13 5 -11 0 -14 -3 -6 -6z"/>
<path d="M1964 3065 c-8 -32 -7 -33 41 -35 68 -3 95 0 95 10 0 17 -63 50 -97
50 -27 0 -34 -5 -39 -25z"/>
<path d="M2290 3059 c-11 -7 -4 -8 25 -3 50 8 58 14 19 14 -16 0 -36 -5 -44
-11z"/>
<path d="M2215 3040 c-7 -12 2 -12 30 0 19 8 19 9 -2 9 -12 1 -25 -3 -28 -9z"/>
<path d="M1735 2910 c3 -5 11 -10 16 -10 6 0 7 5 4 10 -3 6 -11 10 -16 10 -6
0 -7 -4 -4 -10z"/>
<path d="M1231 2868 c-1 -27 24 -137 34 -146 9 -9 5 21 -14 98 -11 42 -19 63
-20 48z"/>
<path d="M1510 2673 c0 -28 3 -34 10 -23 13 20 13 60 0 60 -5 0 -10 -17 -10
-37z"/>
<path d="M3037 2603 c-10 -18 -17 -40 -17 -50 0 -10 8 -2 21 21 11 21 18 43
16 49 -2 7 -11 -2 -20 -20z"/>
<path d="M1337 2609 c7 -7 15 -10 18 -7 3 3 -2 9 -12 12 -14 6 -15 5 -6 -5z"/>
<path d="M1756 2595 c8 -37 14 -45 14 -19 0 10 -5 26 -10 34 -8 11 -9 7 -4
-15z"/>
<path d="M1500 2519 c0 -36 -2 -102 -5 -145 -3 -60 -2 -71 5 -44 16 61 24 215
12 236 -9 15 -11 6 -12 -47z"/>
<path d="M3091 2074 c0 -11 3 -14 6 -6 3 7 2 16 -1 19 -3 4 -6 -2 -5 -13z"/>
<path d="M2459 2020 c-3 -25 -2 -58 1 -75 7 -30 7 -30 13 10 4 22 3 56 -1 75
l-9 35 -4 -45z"/>
<path d="M1305 1999 c-11 -17 1 -21 15 -4 8 9 8 15 2 15 -6 0 -14 -5 -17 -11z"/>
<path d="M3208 1975 c-2 -19 -1 -41 4 -48 4 -8 8 -66 9 -130 2 -114 6 -139 14
-81 2 16 4 31 5 34 11 36 -10 260 -25 260 -1 0 -5 -16 -7 -35z"/>
<path d="M3100 1889 c0 -28 24 -67 33 -53 3 5 -3 25 -14 44 -17 33 -18 34 -19
9z"/>
<path d="M3130 1803 c0 -4 5 -15 10 -23 8 -13 10 -13 10 2 0 9 -4 20 -10 23
-5 3 -10 3 -10 -2z"/>
<path d="M1206 1735 c-3 -8 -1 -15 4 -15 6 0 10 7 10 15 0 8 -2 15 -4 15 -2 0
-6 -7 -10 -15z"/>
<path d="M3170 1705 c0 -5 5 -17 10 -25 5 -8 10 -10 10 -5 0 6 -5 17 -10 25
-5 8 -10 11 -10 5z"/>
<path d="M1188 1683 c7 -3 16 -2 19 1 4 3 -2 6 -13 5 -11 0 -14 -3 -6 -6z"/>
<path d="M1140 1669 c0 -5 5 -7 10 -4 6 3 10 8 10 11 0 2 -4 4 -10 4 -5 0 -10
-5 -10 -11z"/>
<path d="M1740 1661 c5 -11 15 -23 21 -27 6 -3 3 5 -6 20 -20 30 -30 35 -15 7z"/>
<path d="M1094 1578 l-19 -23 23 19 c21 18 27 26 19 26 -2 0 -12 -10 -23 -22z"/>
<path d="M1637 1559 c7 -7 15 -10 18 -7 3 3 -2 9 -12 12 -14 6 -15 5 -6 -5z"/>
<path d="M1670 1546 c0 -2 8 -10 18 -17 15 -13 16 -12 3 4 -13 16 -21 21 -21
13z"/>
<path d="M1836 1537 c3 -10 9 -15 12 -12 3 3 0 11 -7 18 -10 9 -11 8 -5 -6z"/>
<path d="M1760 1475 c19 -14 36 -25 39 -25 10 0 -53 49 -63 50 -6 0 5 -11 24
-25z"/>
<path d="M3056 1485 c4 -11 3 -17 -1 -12 -8 7 -55 -30 -55 -44 0 -16 35 0 54
24 16 22 17 30 7 40 -10 10 -11 8 -5 -8z m-16 -36 c-7 -11 -14 -18 -17 -15 -3
3 0 12 7 21 18 21 23 19 10 -6z"/>
<path d="M1820 1437 c0 -2 20 -22 45 -45 25 -23 45 -36 45 -29 -1 10 -90 84
-90 74z"/>
<path d="M1867 1433 c-3 -5 12 -19 34 -31 42 -24 52 -17 19 13 -11 10 -20 15
-20 10 0 -4 -6 -2 -14 4 -8 7 -17 8 -19 4z"/>
<path d="M3066 1405 c-3 -8 -1 -15 4 -15 6 0 10 7 10 15 0 8 -2 15 -4 15 -2 0
-6 -7 -10 -15z"/>
<path d="M3046 1322 c-13 -25 -23 -33 -36 -29 -11 3 -18 0 -17 -6 1 -5 -9 -14
-23 -18 -14 -4 -18 -7 -9 -8 22 -1 81 19 97 34 8 7 12 23 10 36 -3 23 -4 22
-22 -9z"/>
<path d="M1929 1325 c6 -11 18 -30 28 -42 l18 -23 1 40 c1 22 -2 40 -7 40 -5
0 -9 -7 -9 -15 0 -20 -10 -19 -27 3 -13 16 -13 15 -4 -3z"/>
<path d="M2910 1250 c-8 -5 -10 -10 -5 -10 6 0 17 5 25 10 8 5 11 10 5 10 -5
0 -17 -5 -25 -10z"/>
<path d="M2757 1228 c-7 -5 -2 -8 13 -9 l25 0 -22 -11 c-13 -6 -23 -17 -23
-25 0 -7 -5 -13 -12 -13 -6 0 -8 -3 -5 -7 4 -3 17 3 30 15 12 11 41 29 65 39
l43 18 -51 0 c-28 0 -57 -3 -63 -7z"/>
<path d="M2275 1198 c10 -31 10 -57 0 -92 l-8 -28 39 6 c35 6 42 4 70 -26 17
-18 39 -47 49 -64 9 -17 26 -36 37 -43 29 -18 45 1 64 73 18 70 4 127 -30 123
-15 -1 -22 5 -24 21 -3 21 -1 22 40 17 36 -5 40 -4 24 6 -13 8 -49 10 -110 7
-50 -3 -80 -2 -66 2 22 6 21 7 -15 13 -69 12 -78 10 -70 -15z"/>
<path d="M2398 1213 c7 -3 16 -2 19 1 4 3 -2 6 -13 5 -11 0 -14 -3 -6 -6z"/>
<path d="M2718 1213 c7 -3 16 -2 19 1 4 3 -2 6 -13 5 -11 0 -14 -3 -6 -6z"/>
<path d="M2634 1198 c-65 -12 -82 -39 -53 -87 23 -38 29 -38 64 -3 34 33 67
104 48 101 -5 -1 -31 -6 -59 -11z"/>
<path d="M3037 1194 c-4 -4 -7 -14 -7 -23 0 -11 3 -12 11 -4 6 6 10 16 7 23
-2 6 -7 8 -11 4z"/>
<path d="M3081 1130 c0 -14 4 -32 9 -40 8 -12 10 -12 9 5 0 11 -4 29 -9 40 -8
18 -9 18 -9 -5z"/>
<path d="M387 1096 c-4 -10 -1 -13 8 -9 8 3 12 9 9 14 -7 12 -11 11 -17 -5z"/>
<path d="M3140 1071 c0 -5 5 -13 10 -16 6 -3 10 -2 10 4 0 5 -4 13 -10 16 -5
3 -10 2 -10 -4z"/>
<path d="M491 1040 c-53 -12 -111 -44 -107 -57 3 -6 1 -13 -4 -15 -5 -2 -6 -9
-1 -16 7 -11 17 -9 49 13 26 17 59 28 96 32 62 6 75 16 52 38 -16 16 -33 17
-85 5z"/>
<path d="M1840 1016 c0 -10 24 -63 81 -179 22 -43 39 -87 39 -97 0 -10 5 -22
10 -25 6 -3 10 -15 10 -26 0 -11 9 -48 20 -83 12 -35 20 -67 19 -72 -1 -5 0
-11 1 -14 4 -10 10 -57 18 -140 l9 -85 3 75 c2 41 2 87 1 103 -3 36 15 35 61
-6 36 -31 38 -35 53 -140 9 -60 26 -132 39 -160 22 -51 23 -52 35 -28 7 13 15
68 16 125 3 85 2 93 -6 51 -5 -27 -10 -56 -11 -63 -1 -8 -5 -9 -11 -3 -14 14
-19 138 -8 176 l9 30 16 -35 17 -35 -7 40 c-4 22 -8 67 -8 100 0 50 5 68 29
108 17 26 35 45 42 43 7 -3 15 4 18 15 4 10 11 16 17 13 6 -4 8 -2 4 4 -3 6 5
19 19 29 15 10 43 33 63 50 20 18 44 33 53 33 8 0 26 11 39 25 12 13 26 22 30
20 4 -2 18 7 30 20 13 14 18 25 12 25 -6 0 -14 -4 -17 -10 -3 -5 -13 -10 -22
-10 -8 0 -27 -9 -43 -20 -15 -11 -30 -17 -34 -13 -3 3 -6 1 -6 -5 0 -6 -18
-20 -40 -31 -48 -23 -50 -17 -8 26 18 18 29 33 26 33 -3 0 -32 -26 -63 -57
-31 -32 -54 -53 -51 -46 7 13 -82 21 -159 13 -57 -6 -70 -27 -38 -62 18 -21
18 -21 -16 -14 -19 3 -39 13 -45 22 -7 9 -19 14 -27 12 -29 -6 -19 15 17 36
20 11 46 33 57 48 20 27 20 29 4 63 -16 34 -54 54 -76 40 -6 -3 -14 -24 -17
-46 -4 -22 -15 -50 -24 -62 l-17 -21 -32 34 c-18 19 -55 69 -82 110 -27 41
-49 70 -49 66z"/>
<path d="M2519 953 l-34 -38 38 34 c20 19 37 36 37 38 0 8 -8 0 -41 -34z"/>
<path d="M300 971 c0 -8 -7 -22 -16 -32 -14 -16 -13 -18 16 -24 42 -9 46 -2
21 37 -11 18 -21 27 -21 19z"/>
<path d="M801 961 l-25 -19 27 5 c15 3 27 12 27 19 0 17 0 17 -29 -5z"/>
<path d="M555 920 c-24 -6 -17 -8 30 -8 33 0 74 4 90 8 24 6 17 8 -30 8 -33 0
-73 -4 -90 -8z"/>
<path d="M2187 884 c-4 -4 -7 -18 -7 -31 0 -21 4 -24 33 -21 27 2 32 7 32 28
0 19 -6 26 -25 28 -14 2 -29 0 -33 -4z"/>
<path d="M3206 765 c4 -8 8 -15 10 -15 2 0 4 7 4 15 0 8 -4 15 -10 15 -5 0 -7
-7 -4 -15z"/>
<path d="M3191 734 c0 -11 3 -14 6 -6 3 7 2 16 -1 19 -3 4 -6 -2 -5 -13z"/>
</g>
</svg>
