<?xml version="1.0" standalone="no"?>
<!DOCTYPE svg PUBLIC "-//W3C//DTD SVG 20010904//EN"
 "http://www.w3.org/TR/2001/REC-SVG-20010904/DTD/svg10.dtd">
<svg version="1.0" xmlns="http://www.w3.org/2000/svg"
 width="408.000000pt" height="612.000000pt" viewBox="0 0 408.000000 612.000000"
 preserveAspectRatio="xMidYMid meet">

<g transform="translate(0.000000,612.000000) scale(0.100000,-0.100000)"
fill="#000000" stroke="none">
<path d="M1740 5819 c-19 -6 -64 -11 -100 -13 -77 -3 -122 -26 -191 -97 -44
-45 -61 -83 -32 -72 18 7 16 -8 -4 -37 l-17 -25 23 20 22 19 -10 -26 c-7 -18
-6 -29 2 -38 7 -7 7 -10 2 -7 -7 3 -11 -10 -12 -34 -1 -22 -15 -62 -31 -93
-47 -84 -82 -236 -82 -352 0 -74 -10 -46 -19 57 -7 75 -9 42 -8 -171 0 -146
-3 -282 -7 -302 -6 -27 -4 -43 8 -59 12 -17 13 -26 4 -36 -9 -11 -4 -20 25
-44 34 -28 37 -35 37 -80 0 -35 -3 -48 -12 -43 -12 8 -4 -10 17 -36 7 -8 18
-33 25 -55 27 -84 59 -134 100 -155 22 -11 41 -18 41 -15 1 3 3 10 4 15 1 6 3
21 4 35 1 32 26 33 52 3 27 -34 24 -46 -30 -97 -26 -25 -72 -75 -101 -111 -29
-36 -89 -103 -134 -150 -45 -46 -72 -77 -60 -67 11 9 25 17 31 17 6 0 35 28
65 62 72 85 107 113 139 113 15 0 31 4 36 9 4 5 -4 7 -19 4 -24 -4 -26 -3 -15
12 51 71 133 160 148 160 5 0 29 -21 53 -46 l43 -47 7 29 c5 18 3 30 -3 32 -6
2 -8 9 -4 15 3 7 3 9 -2 5 -12 -11 -35 11 -35 32 0 14 10 19 40 22 49 4 70 -6
70 -35 1 -25 19 -51 38 -55 6 -1 12 4 12 12 0 7 9 16 20 19 24 6 26 -6 5 -27
-29 -29 -12 -76 28 -76 10 0 21 9 24 20 3 11 9 20 14 20 5 0 9 6 9 13 0 6 9
23 19 36 15 19 29 24 84 28 60 4 67 2 67 -14 0 -29 -12 -40 -57 -53 -27 -8
-43 -20 -47 -33 -3 -13 -10 -18 -22 -13 -12 5 -15 2 -10 -10 3 -8 6 -18 6 -20
0 -8 71 -4 114 8 42 11 45 10 83 -19 44 -36 67 -95 78 -203 3 -36 11 -79 16
-95 14 -45 14 -118 1 -123 -18 -6 -14 -22 6 -22 12 0 8 -6 -13 -20 -16 -11
-26 -20 -21 -20 6 0 -2 -12 -16 -27 -15 -16 -30 -41 -34 -56 -3 -16 -17 -40
-30 -54 -13 -14 -24 -31 -24 -38 0 -13 -66 -83 -132 -142 -48 -43 -144 -93
-178 -93 -62 0 -83 59 -85 234 -2 144 -11 176 -35 114 -38 -104 -105 -222
-159 -284 -29 -32 -41 -38 -85 -42 -40 -3 -55 0 -71 15 -30 27 -71 85 -79 111
-4 12 -11 22 -15 22 -21 0 -83 158 -82 208 1 13 -3 32 -9 42 -7 12 -5 33 4 65
8 26 12 53 10 60 -3 8 2 29 11 49 20 42 14 55 -26 54 -36 -1 -51 -18 -15 -18
14 0 27 -4 30 -9 4 -5 -10 -7 -31 -4 -34 4 -44 0 -91 -41 -29 -25 -65 -60 -80
-78 -15 -18 -32 -38 -37 -44 -6 -6 -17 -31 -25 -55 -8 -24 -20 -50 -26 -56
-23 -23 -26 -88 -8 -149 19 -67 53 -139 61 -130 9 9 43 -14 43 -29 0 -18 45
-49 93 -65 21 -6 41 -19 44 -27 4 -9 -2 -47 -12 -84 -16 -64 -16 -71 -1 -94
20 -31 21 -55 1 -55 -8 0 -15 9 -15 20 0 24 -13 26 -34 5 -8 -8 -22 -15 -31
-15 -14 0 -14 -2 0 -24 8 -12 31 -32 51 -42 l36 -19 19 24 c15 18 19 40 20
100 0 53 3 71 10 61 21 -32 115 -183 125 -201 22 -39 44 -48 76 -30 15 9 28
21 28 27 0 6 6 17 14 23 7 6 14 23 14 36 0 20 -6 25 -24 25 -32 0 -32 33 1 54
52 34 101 16 92 -36 -6 -42 16 -144 32 -140 6 1 11 -5 11 -14 0 -8 -4 -12 -10
-9 -6 4 -10 -8 -10 -29 0 -36 -21 -66 -46 -66 -8 0 -14 5 -14 12 0 8 -3 9 -10
2 -8 -8 -5 -21 7 -42 17 -31 17 -33 0 -63 -10 -18 -16 -34 -13 -36 3 -3 21 0
40 7 31 10 35 15 30 35 -10 40 5 49 35 23 35 -31 67 -48 88 -47 11 0 13 3 6 6
-7 2 -13 11 -13 19 0 9 -5 12 -12 8 -8 -5 -9 -2 -5 9 4 12 1 17 -9 17 -11 0
-14 5 -10 17 4 10 4 14 0 11 -11 -12 -55 62 -49 83 8 23 61 50 83 42 27 -10
75 -53 94 -85 19 -30 25 -118 8 -118 -13 0 -13 -77 -1 -82 5 -1 12 -19 16 -40
6 -29 3 -40 -14 -57 -12 -12 -21 -24 -21 -27 0 -9 -28 -34 -38 -34 -6 0 -12
-3 -14 -8 -4 -10 -88 -75 -88 -68 0 3 -22 -6 -49 -19 -27 -14 -56 -25 -64 -25
-9 0 -18 -3 -20 -7 -11 -17 22 -30 85 -32 51 -2 68 1 75 13 5 10 16 13 30 10
16 -4 23 -16 27 -47 3 -23 8 -51 10 -62 2 -11 -5 -29 -15 -40 -10 -11 -17 -24
-17 -30 1 -5 -17 -20 -38 -32 -30 -18 -55 -23 -112 -23 -40 0 -83 5 -94 11
-16 8 -19 8 -13 -1 6 -9 2 -9 -15 0 -12 6 -28 9 -35 6 -33 -12 -80 38 -132
144 -55 110 -133 330 -133 374 0 36 -17 41 -23 7 -7 -32 26 -154 68 -261 41
-100 44 -117 34 -155 -13 -46 -50 -66 -93 -51 -17 6 -34 16 -38 21 -5 6 -8 6
-8 -2 0 -6 7 -18 15 -26 11 -12 12 -17 2 -20 -7 -4 -6 -6 4 -6 14 -1 33 -27
29 -39 0 -1 16 -18 36 -36 20 -18 35 -39 32 -47 -2 -7 20 -34 49 -60 66 -58
84 -80 121 -154 52 -101 59 -143 38 -222 -10 -37 -20 -83 -23 -101 -3 -17 -9
-32 -14 -32 -5 0 -9 -7 -9 -14 0 -8 -10 -26 -22 -40 -13 -13 -31 -36 -41 -49
-10 -14 -44 -38 -75 -54 -49 -25 -65 -28 -146 -27 -95 1 -219 22 -295 48 -24
9 -45 16 -48 16 -5 0 18 -44 27 -50 4 -3 20 -41 35 -85 15 -44 32 -84 37 -90
8 -7 8 -6 3 4 -11 18 9 11 64 -24 28 -17 41 -32 41 -48 0 -12 9 -35 19 -50 18
-28 20 -73 7 -136 -6 -28 28 -98 80 -167 48 -62 99 -157 113 -211 7 -24 16
-43 20 -43 30 0 37 -114 9 -147 -8 -10 31 -13 190 -13 l201 0 -5 77 c-2 43 -9
109 -15 146 -8 47 -8 76 -1 91 7 15 7 28 -1 41 -11 21 -30 194 -31 285 -1 46
3 60 24 82 31 33 120 51 120 24 0 -20 26 -21 34 -1 4 10 20 15 51 15 56 0 232
-28 256 -41 10 -5 30 -9 46 -9 35 0 73 -25 73 -48 0 -22 -87 -122 -105 -122
-23 0 -22 -34 1 -52 21 -17 23 -58 3 -58 -5 0 -9 -5 -9 -11 0 -12 -53 -83 -81
-109 -22 -21 -31 -60 -13 -60 25 0 15 -35 -22 -83 -20 -26 -41 -47 -45 -47 -5
0 -9 -7 -9 -16 0 -8 -14 -35 -31 -60 l-30 -45 182 1 c100 1 178 5 173 10 -5 4
-26 13 -46 20 -21 6 -38 16 -38 21 0 5 -7 9 -15 9 -16 0 -31 43 -20 60 4 6 14
9 22 6 11 -4 13 -2 10 9 -4 8 6 29 21 47 l27 33 -29 -23 c-31 -24 -53 -14 -35
17 14 24 32 75 31 83 -1 4 6 17 15 28 13 14 20 17 30 8 10 -8 13 -6 13 10 0
11 15 32 33 47 18 15 22 22 10 16 -29 -15 -36 -14 -30 3 3 7 0 19 -6 25 -8 8
-8 11 0 11 7 0 15 10 19 23 3 12 12 28 18 36 6 8 11 26 12 40 0 20 5 26 22 25
13 0 21 4 19 10 -3 6 11 22 31 36 61 44 90 81 111 144 25 73 25 77 8 70 -16
-6 -81 56 -85 82 -7 44 -24 84 -37 84 -7 0 -35 -11 -62 -25 -59 -30 -109 -33
-283 -16 -117 12 -151 11 -250 -1 -63 -9 -120 -14 -126 -11 -23 9 -37 60 -41
148 -8 162 43 321 131 408 65 66 113 107 124 107 6 0 12 3 14 8 6 14 110 61
124 55 8 -3 14 0 14 6 0 6 7 8 15 5 8 -4 15 -1 15 5 0 7 8 8 25 1 15 -6 26 -6
30 0 8 13 67 13 100 0 18 -7 24 -7 20 0 -6 9 15 -1 96 -46 11 -6 41 -30 65
-53 24 -22 49 -41 54 -41 6 0 10 -8 11 -17 1 -10 6 -1 11 21 8 30 8 40 -3 47
-12 8 -6 13 12 11 3 -1 13 33 21 76 15 76 15 76 -11 126 -16 31 -43 62 -74 84
-63 46 -73 71 -47 122 24 47 24 50 4 50 -13 0 -15 7 -10 32 3 18 10 34 14 38
22 14 21 42 -3 68 -14 15 -23 33 -20 41 3 7 0 20 -6 27 -6 8 -8 14 -4 14 4 0
2 7 -5 15 -10 12 -10 18 0 30 8 10 9 15 2 15 -6 0 -9 7 -5 16 5 15 3 15 -25 0
-17 -9 -32 -16 -34 -16 -2 0 -4 18 -5 40 0 22 -9 52 -18 66 -17 27 -16 67 4
117 22 56 10 48 -56 -37 -37 -47 -73 -86 -79 -86 -6 0 -9 12 -6 31 3 21 18 41
51 67 67 54 119 109 181 190 29 40 58 72 63 72 25 0 -23 -121 -67 -167 -20
-22 -25 -33 -15 -33 8 0 21 6 28 13 11 10 13 9 7 -6 -3 -10 -6 -23 -6 -28 0
-5 -6 -9 -14 -9 -7 0 -19 -7 -26 -15 -11 -13 -8 -13 19 -4 53 19 96 88 142
229 22 67 30 80 35 63 3 -13 13 -23 20 -23 19 0 18 -62 -1 -127 -19 -63 -69
-133 -95 -133 -11 0 -20 -7 -20 -15 0 -20 49 -20 77 0 12 9 35 38 50 65 15 28
33 50 38 50 17 0 57 -78 44 -86 -7 -4 -1 -11 15 -18 l28 -11 -23 -29 c-12 -15
-36 -34 -53 -42 -30 -13 -30 -13 -6 -14 14 0 42 11 62 25 20 14 50 25 65 26
15 0 22 3 16 6 -22 8 -15 27 22 63 19 19 35 39 35 44 0 6 18 53 40 104 22 51
40 101 40 112 0 11 5 20 10 20 6 0 10 20 10 44 0 24 7 60 15 79 18 44 21 81 4
57 -8 -11 -9 -2 -5 34 3 27 6 58 6 69 0 16 3 17 15 7 8 -7 15 -29 15 -50 0
-21 7 -57 15 -80 23 -66 19 -182 -9 -262 -13 -37 -29 -75 -36 -83 -9 -11 -10
-19 -3 -26 12 -12 5 -59 -8 -59 -5 0 -9 -6 -9 -13 0 -7 -16 -21 -35 -31 -39
-21 -39 -32 -2 -22 13 3 36 23 50 44 34 52 97 206 98 240 0 15 4 35 8 45 6 16
9 17 18 5 7 -7 17 -25 23 -38 6 -14 17 -36 25 -50 34 -58 9 -175 -47 -226 -24
-22 -32 -34 -22 -34 63 0 97 77 97 219 -1 103 0 105 33 148 19 25 37 56 40 70
10 37 -3 210 -18 262 -12 40 -13 33 -13 -100 0 -129 -2 -149 -23 -193 -13 -29
-26 -46 -31 -40 -5 5 -14 47 -20 94 -6 47 -20 114 -32 150 -11 36 -29 94 -41
129 -11 35 -21 81 -22 101 -1 25 -5 36 -13 33 -7 -3 -13 -10 -13 -16 0 -26
-13 7 -30 82 -22 92 -26 152 -5 81 l13 -45 1 36 c1 20 -6 52 -14 70 -13 32
-14 32 -16 9 -3 -51 -27 76 -28 149 l-1 74 -70 -106 c-38 -58 -81 -126 -94
-151 -13 -25 -27 -42 -30 -39 -13 13 -5 -23 24 -114 52 -162 35 -317 -43 -390
-24 -22 -28 -24 -22 -8 15 36 14 159 -1 225 -15 67 -50 148 -90 212 -13 21
-24 49 -24 62 0 14 -6 29 -14 33 -16 10 -28 87 -15 100 6 6 6 19 1 34 -18 47
-24 120 -11 135 9 11 9 17 -1 29 -6 8 -9 19 -5 25 3 5 3 10 -2 10 -4 0 -9 18
-11 40 -1 22 2 40 7 40 6 0 7 7 4 17 -4 10 -2 14 4 10 6 -4 16 11 23 34 8 22
21 46 29 52 9 7 22 24 30 39 33 64 154 168 196 168 21 0 20 -8 -21 -102 -34
-80 -74 -219 -74 -259 0 -10 5 -19 10 -19 6 0 10 4 10 9 0 11 71 115 82 119 4
2 8 13 8 25 1 16 7 10 23 -22 28 -56 49 -66 41 -19 -5 31 -5 32 10 14 15 -19
22 -12 17 17 -1 4 4 17 10 28 8 16 13 18 25 8 12 -9 14 -6 15 17 1 16 1 37 0
47 -1 9 2 17 7 17 13 0 31 158 32 288 0 44 -12 44 -59 -1 -48 -47 -152 -97
-202 -97 -22 0 -30 7 -43 40 -9 22 -16 55 -17 73 0 26 -2 28 -8 12 -7 -17 -10
-13 -21 25 -19 69 -39 190 -40 237 0 41 13 65 23 41 4 -9 12 -5 26 12 15 19
19 34 14 62 -4 28 0 44 18 69 13 18 22 43 21 56 -1 15 4 23 14 23 8 0 12 -4 9
-10 -10 -15 21 -12 34 4 8 10 9 16 1 21 -5 3 -10 3 -10 -2 0 -4 -5 -1 -10 7
-6 9 -10 10 -10 3 0 -8 -8 -7 -29 3 -27 13 -48 55 -37 72 3 4 -10 6 -28 4 -30
-3 -35 -1 -45 29 -6 17 -11 42 -11 55 0 18 -4 22 -17 17 -10 -3 -15 -3 -11 1
3 4 -2 39 -13 77 -10 38 -19 79 -20 91 0 22 -1 22 -9 3 -7 -18 -9 -18 -19 10
-6 17 -16 42 -22 57 -6 15 -8 31 -5 36 9 15 -85 150 -140 204 -54 52 -162 107
-262 132 -71 18 -82 18 -132 5z m-11 -71 c-1 -18 -3 -25 -6 -15 -2 9 -9 17
-15 17 -6 0 -6 6 2 15 18 21 20 19 19 -17z m-235 -53 c-4 -8 -10 -12 -15 -9
-11 6 -2 24 11 24 5 0 7 -7 4 -15z m254 -10 c12 -27 10 -28 -25 -19 -19 5 -21
10 -12 25 13 26 24 24 37 -6z m-228 -52 c0 -7 -4 -13 -10 -13 -5 0 -10 12 -10
28 0 21 2 24 10 12 5 -8 10 -21 10 -27z m236 -18 c10 -8 14 -15 8 -15 -5 0
-19 7 -30 15 -10 8 -14 15 -8 15 5 0 19 -7 30 -15z m-246 -205 c6 0 10 -8 11
-17 0 -16 1 -16 8 1 6 17 10 15 34 -14 33 -38 33 -46 6 -53 -15 -4 -23 0 -26
14 -5 19 -6 19 -23 -1 -19 -22 -40 -27 -40 -9 0 5 -4 8 -9 4 -6 -3 -15 5 -22
17 -7 13 -16 26 -22 29 -10 7 8 74 26 97 8 10 15 4 29 -27 10 -23 23 -41 28
-41z m135 -54 c-10 -20 -21 -36 -25 -36 -8 0 -20 24 -20 40 0 9 52 39 58 34 2
-1 -4 -18 -13 -38z m285 -233 c0 -16 -6 -23 -20 -23 -18 0 -20 7 -20 58 l1 57
19 -35 c11 -19 19 -45 20 -57z m-100 -44 c0 -4 -7 -9 -15 -13 -11 -4 -15 2
-15 27 1 30 1 31 15 13 8 -11 15 -23 15 -27z m179 -10 c-24 -14 -36 11 -14 27
18 13 20 13 23 -2 2 -9 -2 -20 -9 -25z m-194 -71 c20 10 26 -2 20 -40 -6 -36
-5 -40 10 -35 9 4 23 0 32 -9 15 -14 17 -14 25 0 11 20 34 21 41 2 4 -9 -1
-17 -11 -20 -9 -2 17 -4 58 -4 41 0 81 0 88 -1 14 -1 16 -87 3 -163 -4 -26 -5
-45 -1 -43 14 9 -4 -62 -23 -90 -33 -50 -123 -132 -151 -139 -18 -4 -39 -1
-59 9 -18 9 -60 27 -93 40 -85 32 -134 65 -181 122 -37 44 -73 103 -73 119 0
4 15 4 33 1 18 -3 43 1 57 8 18 10 29 10 38 3 7 -6 16 -8 19 -4 4 4 2 11 -6
15 -10 6 -9 12 4 25 9 9 21 16 26 16 6 0 7 5 4 10 -3 6 1 10 9 10 10 0 13 6
10 15 -5 11 -2 14 12 8 11 -3 22 -11 26 -17 4 -6 8 0 8 13 0 15 -16 40 -44 67
-24 25 -40 46 -36 49 4 3 11 -2 14 -10 4 -13 15 -9 55 17 28 18 50 40 51 48 0
11 4 10 16 -5 8 -11 17 -19 19 -17z m-310 -8 c3 -5 1 -10 -4 -10 -6 0 -11 5
-11 10 0 6 2 10 4 10 3 0 8 -4 11 -10z m485 -40 c12 -8 11 -10 -7 -10 -13 0
-23 5 -23 10 0 13 11 13 30 0z m278 -54 c0 -24 -23 -43 -32 -27 -8 13 6 51 19
51 7 0 13 -11 13 -24z m-708 -88 c8 -13 6 -15 -10 -11 -26 7 -33 19 -25 41 6
17 10 15 35 -30z m490 -328 c-8 -28 -19 -45 -37 -53 -21 -9 -27 -9 -31 1 -2 7
-8 10 -13 6 -20 -12 -30 8 -12 26 10 9 28 29 41 44 13 16 29 25 38 22 8 -3 14
0 15 7 0 9 2 9 5 0 3 -6 0 -30 -6 -53z m450 -123 c0 -16 -18 3 -23 25 -6 22
-5 22 8 4 8 -11 15 -24 15 -29z m-504 -91 c-30 -80 -51 -119 -70 -135 -19 -16
-20 -4 -2 28 7 13 11 32 9 42 -5 19 20 93 39 117 6 6 19 12 29 12 18 0 18 -3
-5 -64z m74 44 c-13 -9 -13 -10 0 -10 9 0 11 -3 5 -8 -10 -7 -15 -27 -19 -77
-2 -24 -8 -31 -29 -33 -31 -4 -33 7 -16 59 13 37 46 79 63 79 6 0 4 -5 -4 -10z
m-180 -10 c0 -5 -5 -10 -12 -12 -8 -3 -9 -13 -2 -34 14 -45 6 -96 -14 -92 -14
3 -17 16 -17 73 -1 66 1 70 22 71 13 1 23 -2 23 -6z m27 -37 c-3 -10 -5 -4 -5
12 0 17 2 24 5 18 2 -7 2 -21 0 -30z m183 -18 c0 -5 -5 -3 -10 5 -5 8 -10 20
-10 25 0 6 5 3 10 -5 5 -8 10 -19 10 -25z m106 -110 c1 -8 -2 -15 -7 -15 -5 0
-9 10 -9 22 0 23 12 17 16 -7z m-1111 -609 c-19 -37 -35 -74 -35 -81 0 -14
-18 -30 -26 -23 -2 3 7 26 21 51 13 26 20 47 15 47 -6 0 -10 5 -10 11 0 13 59
73 66 67 2 -3 -12 -35 -31 -72z m85 -16 c0 -38 4 -70 9 -70 6 0 6 -12 -1 -30
-5 -17 -8 -40 -5 -52 14 -52 -40 -63 -91 -19 l-34 29 19 63 c23 74 67 149 88
149 12 0 15 -15 15 -70z m25 11 c-3 -11 -1 -22 5 -26 15 -9 13 -48 -2 -43 -7
3 -15 13 -16 22 -4 20 6 66 14 66 3 0 3 -9 -1 -19z m1503 -280 c-2 -24 -8 -36
-18 -36 -18 0 -29 55 -29 150 l0 70 25 -74 c14 -41 24 -91 22 -110z m-425 49
c5 14 10 20 13 14 3 -7 -6 -38 -19 -70 -25 -63 -55 -88 -114 -97 -29 -5 -33
-2 -33 17 0 12 9 25 22 31 14 6 25 23 29 42 3 17 12 38 20 46 8 8 25 32 39 55
l25 40 5 -51 c4 -44 6 -48 13 -27z m-75 27 c-1 -14 -9 -24 -20 -24 -21 -2 -24
17 -6 35 18 18 28 14 26 -11z m-968 -354 c0 -18 -4 -33 -10 -33 -5 0 -10 21
-10 48 0 34 3 43 10 32 5 -8 10 -30 10 -47z m633 -196 c39 -20 56 -37 37 -37
-6 0 -8 -4 -5 -10 3 -5 -1 -10 -9 -10 -9 0 -16 -4 -16 -8 0 -5 -11 -14 -24
-20 -20 -9 -28 -7 -54 16 -17 15 -34 40 -37 55 -4 15 -12 27 -19 27 -6 0 -5 4
3 9 19 12 78 2 124 -22z m287 -57 c0 -5 -4 -10 -9 -10 -5 0 -17 -7 -25 -16 -9
-9 -22 -17 -29 -18 -6 -1 -23 -8 -35 -15 -35 -19 -36 -8 -4 21 50 44 102 64
102 38z m-159 -330 c5 0 9 -13 9 -28 0 -15 5 -33 11 -39 7 -7 5 -15 -6 -27 -9
-9 -13 -16 -9 -16 4 0 0 -8 -8 -17 -8 -10 -18 -26 -21 -36 -4 -9 -17 -21 -29
-26 -13 -5 -21 -10 -18 -13 3 -2 -8 -19 -23 -37 -15 -19 -30 -31 -33 -29 -2 3
2 31 11 64 8 32 15 72 15 89 0 31 33 104 54 117 6 4 17 6 24 3 8 -3 18 -5 23
-5z m139 -250 c28 -25 40 -44 40 -63 0 -15 6 -27 13 -27 6 0 4 -5 -5 -11 -14
-8 -18 -23 -18 -69 0 -56 15 -90 41 -90 5 0 9 -6 9 -14 0 -21 -113 -43 -196
-38 -25 2 -33 8 -38 27 -4 16 -13 25 -26 25 -18 0 -20 5 -14 40 7 44 10 43
-81 24 l-30 -6 23 17 c12 9 22 23 22 31 0 8 6 14 13 14 8 0 7 4 -3 10 -8 5
-10 10 -4 10 5 0 15 -5 21 -11 9 -9 11 -7 9 7 -2 11 5 26 15 35 10 9 15 20 11
24 -4 5 1 5 12 1 14 -5 17 -3 12 10 -4 11 -2 15 8 11 10 -4 13 -1 10 7 -3 8 0
17 5 21 6 3 9 11 6 16 -4 5 0 9 8 9 8 0 20 6 26 14 21 26 67 16 111 -24z
m-886 -302 c-5 -7 -2 -9 9 -5 8 3 20 0 25 -6 11 -15 47 -119 57 -167 l7 -35
-24 23 c-14 13 -39 42 -55 65 -24 34 -29 51 -28 87 3 50 3 50 11 50 3 0 2 -5
-2 -12z m975 -37 c8 -5 -7 -11 -45 -15 -66 -8 -202 -34 -218 -42 -6 -3 -3 1 7
9 10 9 42 21 70 27 29 7 59 16 67 21 20 11 101 11 119 0z m-359 -879 l35 -10
-40 -1 c-47 -2 -87 -21 -43 -21 32 0 29 -22 -3 -36 -20 -9 -20 -10 1 -34 19
-22 20 -25 5 -28 -23 -5 -47 6 -40 18 3 5 -1 10 -10 10 -10 0 -13 -5 -9 -12 4
-7 3 -9 -2 -5 -4 4 -9 18 -9 29 0 12 -6 23 -14 26 -9 3 -12 0 -8 -10 4 -13 1
-14 -19 -4 -13 6 -24 14 -24 18 0 13 61 40 77 34 10 -4 13 -2 10 8 -8 19 14
38 38 32 11 -3 36 -9 55 -14z m-213 -8 c-3 -4 -2 -16 4 -28 10 -20 9 -20 -5
-2 -9 10 -22 16 -31 13 -8 -4 -15 -3 -15 2 0 13 12 21 33 21 11 0 17 -3 14 -6z
m-4 -64 c11 -17 14 -30 7 -30 -6 0 -13 7 -16 15 -4 8 -12 15 -20 15 -8 0 -11
6 -8 15 9 22 18 19 37 -15z m236 13 c-11 -3 -15 -12 -12 -31 4 -27 4 -27 -9
-4 -8 12 -17 19 -21 16 -4 -4 -7 -3 -7 3 0 16 12 23 39 22 14 -1 19 -3 10 -6z
m-649 -157 c0 -2 3 -11 6 -20 9 -23 -13 -20 -26 4 -9 16 -8 20 5 20 8 0 15 -2
15 -4z m996 -47 c10 -16 -17 -29 -31 -16 -10 9 -10 14 -1 19 16 11 24 10 32
-3z"/>
<path d="M1835 4612 c-26 -9 -65 -35 -65 -43 0 -14 56 -17 75 -5 11 7 37 16
58 20 35 7 53 26 23 26 -7 0 -26 2 -42 4 -16 3 -38 2 -49 -2z"/>
<path d="M1310 5535 c-7 -9 -11 -17 -9 -20 3 -2 10 5 17 15 14 24 10 26 -8 5z"/>
<path d="M330 5425 c-32 -60 -14 -156 67 -343 24 -56 49 -116 55 -132 5 -17
14 -28 19 -25 5 3 14 -15 20 -40 6 -25 16 -45 21 -45 6 0 7 8 3 18 -5 9 -12
40 -17 67 -5 28 -16 71 -24 97 -8 26 -17 78 -20 115 -7 85 -26 152 -59 210
-14 25 -25 53 -25 63 0 10 -6 23 -13 29 -11 8 -17 5 -27 -14z"/>
<path d="M467 5412 c-10 -10 -17 -29 -17 -41 0 -25 17 -61 29 -61 12 0 53 98
46 110 -10 16 -40 12 -58 -8z"/>
<path d="M937 5336 l-25 -23 79 -23 c63 -19 76 -26 68 -37 -14 -16 -46 -17
-51 -2 -6 19 -93 12 -138 -11 -23 -12 -48 -19 -55 -16 -8 3 -19 -2 -26 -10 -7
-9 -16 -11 -23 -5 -12 10 -16 11 -46 11 -14 0 -32 18 -55 55 -40 63 -60 72
-50 23 8 -36 61 -144 74 -153 5 -3 11 2 15 10 3 9 18 15 35 15 17 0 53 9 81
20 90 36 245 46 402 26 21 -2 28 2 32 20 3 12 4 28 2 36 -2 7 -7 26 -11 42 -4
19 -9 26 -16 19 -7 -7 -29 -4 -66 9 -34 11 -85 18 -128 18 -62 0 -76 -3 -98
-24z"/>
<path d="M1291 5274 c0 -11 3 -14 6 -6 3 7 2 16 -1 19 -3 4 -6 -2 -5 -13z"/>
<path d="M725 5100 c10 -11 20 -20 23 -20 3 0 -3 9 -13 20 -10 11 -20 20 -23
20 -3 0 3 -9 13 -20z"/>
<path d="M3550 5093 c0 -18 -16 -48 -47 -85 -44 -55 -63 -64 -63 -32 0 8 -8
14 -17 14 -17 0 -93 -104 -93 -127 0 -6 -8 -21 -18 -34 -11 -13 -24 -39 -30
-57 l-11 -33 32 18 c18 10 34 21 35 26 2 4 14 7 26 7 12 0 32 7 44 16 12 8 27
12 32 9 6 -3 10 -1 10 4 0 6 8 19 18 29 9 10 35 40 57 67 21 28 42 52 45 55 3
3 13 16 22 29 17 24 15 84 -5 109 -17 22 -37 14 -37 -15z"/>
<path d="M2600 4969 c-17 -5 -4 -7 42 -8 37 -1 77 -5 90 -9 13 -5 34 -6 48 -2
19 5 11 8 -35 13 -109 13 -120 14 -145 6z"/>
<path d="M2805 4940 c-16 -4 -22 -8 -12 -9 9 0 17 -6 17 -12 0 -6 -9 -9 -20
-6 -11 3 -20 2 -20 -2 0 -4 24 -13 53 -21 28 -7 88 -32 133 -56 109 -59 125
-58 191 14 70 76 69 109 -2 62 -44 -29 -106 -35 -160 -17 -25 9 -52 14 -60 10
-8 -3 -15 0 -15 7 0 6 -4 8 -10 5 -5 -3 -10 -2 -10 3 0 5 -8 12 -17 16 -10 3
-22 8 -28 10 -5 2 -23 0 -40 -4z m53 -34 c-7 -8 -15 -12 -17 -11 -5 6 10 25
20 25 5 0 4 -6 -3 -14z"/>
<path d="M2573 4929 c-21 -21 -15 -30 15 -23 59 14 100 15 135 6 21 -6 37 -7
37 -2 0 8 -33 14 -125 25 -34 4 -54 2 -62 -6z"/>
<path d="M536 4811 c-4 -7 -5 -15 -2 -18 9 -9 19 4 14 18 -4 11 -6 11 -12 0z"/>
<path d="M570 4726 c0 -2 7 -9 15 -16 13 -11 14 -10 9 4 -5 14 -24 23 -24 12z"/>
<path d="M1211 4664 c0 -11 3 -14 6 -6 3 7 2 16 -1 19 -3 4 -6 -2 -5 -13z"/>
<path d="M605 4650 c-3 -5 -1 -10 4 -10 6 0 11 5 11 10 0 6 -2 10 -4 10 -3 0
-8 -4 -11 -10z"/>
<path d="M625 4621 c-3 -6 -1 -11 4 -11 6 0 11 -6 11 -14 0 -7 6 -18 13 -24 9
-8 13 -7 13 6 0 24 -32 57 -41 43z"/>
<path d="M1135 4536 c2 -45 37 -110 62 -114 27 -4 42 -39 64 -147 25 -125 25
-147 -3 -143 -13 2 -29 -4 -36 -12 -10 -12 -10 -10 -2 14 11 30 2 45 -28 46
-20 0 -62 -31 -62 -46 0 -29 -30 -12 -100 56 -40 39 -76 70 -82 70 -5 0 -7 4
-3 9 3 6 -3 14 -13 20 -10 5 -24 21 -32 35 -7 14 -20 26 -27 26 -8 0 -12 4 -9
9 3 5 -25 39 -62 76 -37 37 -66 72 -64 77 1 5 -2 7 -7 4 -5 -3 -11 3 -14 14
-3 12 -13 18 -25 17 -17 -1 -19 -4 -9 -17 52 -67 138 -161 297 -324 239 -244
241 -246 250 -246 11 0 1 71 -12 86 -5 7 0 20 13 35 l20 24 -5 -34 c-5 -28 -4
-32 8 -22 12 10 16 8 22 -11 10 -31 6 -49 -17 -74 -17 -18 -18 -23 -5 -33 11
-9 20 -5 44 25 46 56 51 120 18 227 -36 114 -56 194 -56 219 0 15 5 19 20 15
11 -3 20 -2 20 1 0 9 -150 152 -159 152 -4 0 -6 -15 -6 -34z"/>
<path d="M1130 4202 c0 -5 -10 -14 -22 -20 -21 -10 -22 -11 -3 -11 20 0 55 20
55 33 0 3 -7 6 -15 6 -8 0 -15 -4 -15 -8z"/>
<path d="M2651 3964 c0 -11 3 -14 6 -6 3 7 2 16 -1 19 -3 4 -6 -2 -5 -13z"/>
<path d="M2920 3475 c0 -5 5 -17 10 -25 5 -8 10 -10 10 -5 0 6 -5 17 -10 25
-5 8 -10 11 -10 5z"/>
<path d="M1034 3035 c-4 -8 -3 -31 1 -51 5 -27 3 -34 -6 -29 -16 10 -3 -61 17
-89 13 -20 14 -19 14 11 0 18 5 35 10 38 6 4 8 16 4 27 -4 14 -2 18 5 14 7 -4
11 1 11 13 0 11 -9 22 -21 26 -16 5 -19 12 -15 31 7 26 -11 34 -20 9z"/>
<path d="M1080 2825 c7 -8 16 -15 21 -15 5 0 6 7 3 15 -4 8 -13 15 -21 15 -13
0 -13 -3 -3 -15z"/>
<path d="M1045 2820 c3 -5 11 -10 16 -10 6 0 7 5 4 10 -3 6 -11 10 -16 10 -6
0 -7 -4 -4 -10z"/>
<path d="M3035 2680 c3 -5 8 -10 11 -10 2 0 4 5 4 10 0 6 -5 10 -11 10 -5 0
-7 -4 -4 -10z"/>
<path d="M1521 2386 c-7 -8 -8 -17 -3 -20 15 -9 52 5 52 20 0 18 -34 18 -49 0z"/>
<path d="M2247 2138 c-3 -9 -1 -19 6 -22 9 -3 8 -7 -3 -15 -8 -5 -11 -13 -7
-17 15 -16 29 14 20 42 -7 22 -11 24 -16 12z"/>
<path d="M900 715 c0 -8 7 -15 15 -15 9 0 12 6 9 15 -4 8 -10 15 -15 15 -5 0
-9 -7 -9 -15z"/>
<path d="M1897 686 c-3 -8 1 -17 10 -20 20 -8 27 -1 20 19 -8 19 -23 20 -30 1z"/>
<path d="M901 634 c-1 -12 7 -30 17 -41 9 -10 14 -14 11 -8 -4 5 -11 24 -17
40 -8 24 -11 26 -11 9z"/>
<path d="M1544 629 c-3 -6 -1 -16 5 -22 8 -8 11 -5 11 11 0 24 -5 28 -16 11z"/>
<path d="M1730 585 c0 -8 5 -15 10 -15 6 0 10 7 10 15 0 8 -4 15 -10 15 -5 0
-10 -7 -10 -15z"/>
<path d="M1595 479 c-4 -6 -5 -13 -2 -16 7 -7 27 6 27 18 0 12 -17 12 -25 -2z"/>
<path d="M1810 425 c0 -8 7 -15 15 -15 8 0 15 7 15 15 0 8 -7 15 -15 15 -8 0
-15 -7 -15 -15z"/>
<path d="M1670 320 c0 -5 7 -10 15 -10 8 0 15 5 15 10 0 6 -7 10 -15 10 -8 0
-15 -4 -15 -10z"/>
<path d="M1580 214 c0 -8 5 -12 10 -9 6 3 10 10 10 16 0 5 -4 9 -10 9 -5 0
-10 -7 -10 -16z"/>
<path d="M1766 175 c-3 -10 1 -15 13 -15 10 0 18 7 18 15 0 8 -6 15 -13 15 -6
0 -14 -7 -18 -15z"/>
<path d="M1653 79 c1 -10 7 -19 14 -19 18 0 16 27 -1 33 -10 4 -14 0 -13 -14z"/>
</g>
</svg>
